<svg width="350" height="163" viewBox="0 0 350 163" fill="none" xmlns="http://www.w3.org/2000/svg">
<rect width="350" height="163" rx="20" fill="#F4C12C"/>
<g style="mix-blend-mode:hard-light">
<path d="M194.588 11.4574C197.892 4.46204 204.935 0 212.671 0H330C341.046 0 350 8.95431 350 20V143C350 154.046 341.046 163 330 163H154.567C139.894 163 130.216 147.725 136.483 134.457L194.588 11.4574Z" fill="#246BFE"/>
</g>
<path d="M22.976 48.16C22.1013 48.16 21.264 48.0373 20.464 47.792C19.664 47.536 19.0293 47.2107 18.56 46.816L19.28 45.2C19.728 45.552 20.2827 45.8453 20.944 46.08C21.6053 46.3147 22.2827 46.432 22.976 46.432C23.5627 46.432 24.0373 46.368 24.4 46.24C24.7627 46.112 25.0293 45.9413 25.2 45.728C25.3707 45.504 25.456 45.2533 25.456 44.976C25.456 44.6347 25.3333 44.3627 25.088 44.16C24.8427 43.9467 24.5227 43.7813 24.128 43.664C23.744 43.536 23.312 43.4187 22.832 43.312C22.3627 43.2053 21.888 43.0827 21.408 42.944C20.9387 42.7947 20.5067 42.608 20.112 42.384C19.728 42.1493 19.4133 41.84 19.168 41.456C18.9227 41.072 18.8 40.5813 18.8 39.984C18.8 39.376 18.96 38.8213 19.28 38.32C19.6107 37.808 20.1067 37.4027 20.768 37.104C21.44 36.7947 22.288 36.64 23.312 36.64C23.984 36.64 24.6507 36.7253 25.312 36.896C25.9733 37.0667 26.5493 37.312 27.04 37.632L26.384 39.248C25.8827 38.9493 25.3653 38.7307 24.832 38.592C24.2987 38.4427 23.7867 38.368 23.296 38.368C22.72 38.368 22.2507 38.4373 21.888 38.576C21.536 38.7147 21.2747 38.896 21.104 39.12C20.944 39.344 20.864 39.6 20.864 39.888C20.864 40.2293 20.9813 40.5067 21.216 40.72C21.4613 40.9227 21.776 41.0827 22.16 41.2C22.5547 41.3173 22.992 41.4347 23.472 41.552C23.952 41.6587 24.4267 41.7813 24.896 41.92C25.376 42.0587 25.808 42.24 26.192 42.464C26.5867 42.688 26.9013 42.992 27.136 43.376C27.3813 43.76 27.504 44.2453 27.504 44.832C27.504 45.4293 27.3387 45.984 27.008 46.496C26.688 46.9973 26.192 47.4027 25.52 47.712C24.848 48.0107 24 48.16 22.976 48.16ZM33.6465 48.112C32.6972 48.112 31.8652 47.9253 31.1505 47.552C30.4465 47.168 29.8972 46.6453 29.5025 45.984C29.1185 45.3227 28.9265 44.5707 28.9265 43.728C28.9265 42.8747 29.1132 42.1227 29.4865 41.472C29.8705 40.8107 30.3932 40.2933 31.0545 39.92C31.7265 39.5467 32.4892 39.36 33.3425 39.36C34.1745 39.36 34.9158 39.5413 35.5665 39.904C36.2172 40.2667 36.7292 40.7787 37.1025 41.44C37.4758 42.1013 37.6625 42.88 37.6625 43.776C37.6625 43.8613 37.6572 43.9573 37.6465 44.064C37.6465 44.1707 37.6412 44.272 37.6305 44.368H30.5105V43.04H36.5745L35.7905 43.456C35.8012 42.9653 35.6998 42.5333 35.4865 42.16C35.2732 41.7867 34.9798 41.4933 34.6065 41.28C34.2438 41.0667 33.8225 40.96 33.3425 40.96C32.8518 40.96 32.4198 41.0667 32.0465 41.28C31.6838 41.4933 31.3958 41.792 31.1825 42.176C30.9798 42.5493 30.8785 42.992 30.8785 43.504V43.824C30.8785 44.336 30.9958 44.7893 31.2305 45.184C31.4652 45.5787 31.7958 45.8827 32.2225 46.096C32.6492 46.3093 33.1398 46.416 33.6945 46.416C34.1745 46.416 34.6065 46.3413 34.9905 46.192C35.3745 46.0427 35.7158 45.808 36.0145 45.488L37.0865 46.72C36.7025 47.168 36.2172 47.5147 35.6305 47.76C35.0545 47.9947 34.3932 48.112 33.6465 48.112ZM43.8556 48.112C42.9063 48.112 42.0743 47.9253 41.3596 47.552C40.6556 47.168 40.1063 46.6453 39.7116 45.984C39.3276 45.3227 39.1356 44.5707 39.1356 43.728C39.1356 42.8747 39.3223 42.1227 39.6956 41.472C40.0796 40.8107 40.6023 40.2933 41.2636 39.92C41.9356 39.5467 42.6983 39.36 43.5516 39.36C44.3836 39.36 45.125 39.5413 45.7756 39.904C46.4263 40.2667 46.9383 40.7787 47.3116 41.44C47.685 42.1013 47.8716 42.88 47.8716 43.776C47.8716 43.8613 47.8663 43.9573 47.8556 44.064C47.8556 44.1707 47.8503 44.272 47.8396 44.368H40.7196V43.04H46.7836L45.9996 43.456C46.0103 42.9653 45.909 42.5333 45.6956 42.16C45.4823 41.7867 45.189 41.4933 44.8156 41.28C44.453 41.0667 44.0316 40.96 43.5516 40.96C43.061 40.96 42.629 41.0667 42.2556 41.28C41.893 41.4933 41.605 41.792 41.3916 42.176C41.189 42.5493 41.0876 42.992 41.0876 43.504V43.824C41.0876 44.336 41.205 44.7893 41.4396 45.184C41.6743 45.5787 42.005 45.8827 42.4316 46.096C42.8583 46.3093 43.349 46.416 43.9036 46.416C44.3836 46.416 44.8156 46.3413 45.1996 46.192C45.5836 46.0427 45.925 45.808 46.2236 45.488L47.2956 46.72C46.9116 47.168 46.4263 47.5147 45.8396 47.76C45.2636 47.9947 44.6023 48.112 43.8556 48.112ZM59.5746 39.36C60.2573 39.36 60.8653 39.4933 61.3986 39.76C61.9426 40.0267 62.3693 40.4373 62.6786 40.992C62.988 41.536 63.1426 42.24 63.1426 43.104V48H61.1426V43.36C61.1426 42.6027 60.9613 42.0373 60.5986 41.664C60.2466 41.2907 59.7506 41.104 59.1106 41.104C58.6413 41.104 58.2253 41.2 57.8626 41.392C57.5 41.584 57.2173 41.872 57.0146 42.256C56.8226 42.6293 56.7266 43.104 56.7266 43.68V48H54.7266V36.128H56.7266V41.76L56.2946 41.056C56.5933 40.512 57.0253 40.096 57.5906 39.808C58.1666 39.5093 58.828 39.36 59.5746 39.36ZM69.7914 48.112C68.9167 48.112 68.138 47.9253 67.4554 47.552C66.7727 47.168 66.234 46.6453 65.8394 45.984C65.4447 45.3227 65.2474 44.5707 65.2474 43.728C65.2474 42.8747 65.4447 42.1227 65.8394 41.472C66.234 40.8107 66.7727 40.2933 67.4554 39.92C68.138 39.5467 68.9167 39.36 69.7914 39.36C70.6767 39.36 71.4607 39.5467 72.1434 39.92C72.8367 40.2933 73.3754 40.8053 73.7594 41.456C74.154 42.1067 74.3514 42.864 74.3514 43.728C74.3514 44.5707 74.154 45.3227 73.7594 45.984C73.3754 46.6453 72.8367 47.168 72.1434 47.552C71.4607 47.9253 70.6767 48.112 69.7914 48.112ZM69.7914 46.4C70.282 46.4 70.7194 46.2933 71.1034 46.08C71.4874 45.8667 71.786 45.5573 71.9994 45.152C72.2234 44.7467 72.3354 44.272 72.3354 43.728C72.3354 43.1733 72.2234 42.6987 71.9994 42.304C71.786 41.8987 71.4874 41.5893 71.1034 41.376C70.7194 41.1627 70.2874 41.056 69.8074 41.056C69.3167 41.056 68.8794 41.1627 68.4954 41.376C68.122 41.5893 67.8234 41.8987 67.5994 42.304C67.3754 42.6987 67.2634 43.1733 67.2634 43.728C67.2634 44.272 67.3754 44.7467 67.5994 45.152C67.8234 45.5573 68.122 45.8667 68.4954 46.08C68.8794 46.2933 69.3114 46.4 69.7914 46.4ZM78.1735 48L75.0375 39.456H76.9255L79.6135 46.992H78.7175L81.5335 39.456H83.2135L85.9495 46.992H85.0695L87.8375 39.456H89.6135L86.4615 48H84.5415L82.0455 41.328H82.6375L80.0935 48H78.1735ZM96.6265 51.216C96.2105 51.216 95.7945 51.1467 95.3785 51.008C94.9625 50.8693 94.6158 50.6773 94.3385 50.432L95.1385 48.96C95.3412 49.1413 95.5705 49.2853 95.8265 49.392C96.0825 49.4987 96.3438 49.552 96.6105 49.552C96.9732 49.552 97.2665 49.4613 97.4905 49.28C97.7145 49.0987 97.9225 48.7947 98.1145 48.368L98.6105 47.248L98.7705 47.008L102.002 39.456H103.922L99.9225 48.688C99.6558 49.328 99.3572 49.8347 99.0265 50.208C98.7065 50.5813 98.3438 50.8427 97.9385 50.992C97.5438 51.1413 97.1065 51.216 96.6265 51.216ZM98.3865 48.304L94.5305 39.456H96.6105L99.7465 46.832L98.3865 48.304ZM109.034 48.112C108.159 48.112 107.381 47.9253 106.698 47.552C106.015 47.168 105.477 46.6453 105.082 45.984C104.687 45.3227 104.49 44.5707 104.49 43.728C104.49 42.8747 104.687 42.1227 105.082 41.472C105.477 40.8107 106.015 40.2933 106.698 39.92C107.381 39.5467 108.159 39.36 109.034 39.36C109.919 39.36 110.703 39.5467 111.386 39.92C112.079 40.2933 112.618 40.8053 113.002 41.456C113.397 42.1067 113.594 42.864 113.594 43.728C113.594 44.5707 113.397 45.3227 113.002 45.984C112.618 46.6453 112.079 47.168 111.386 47.552C110.703 47.9253 109.919 48.112 109.034 48.112ZM109.034 46.4C109.525 46.4 109.962 46.2933 110.346 46.08C110.73 45.8667 111.029 45.5573 111.242 45.152C111.466 44.7467 111.578 44.272 111.578 43.728C111.578 43.1733 111.466 42.6987 111.242 42.304C111.029 41.8987 110.73 41.5893 110.346 41.376C109.962 41.1627 109.53 41.056 109.05 41.056C108.559 41.056 108.122 41.1627 107.738 41.376C107.365 41.5893 107.066 41.8987 106.842 42.304C106.618 42.6987 106.506 43.1733 106.506 43.728C106.506 44.272 106.618 44.7467 106.842 45.152C107.066 45.5573 107.365 45.8667 107.738 46.08C108.122 46.2933 108.554 46.4 109.034 46.4ZM119.379 48.112C118.653 48.112 118.013 47.9787 117.459 47.712C116.904 47.4347 116.472 47.0187 116.163 46.464C115.853 45.8987 115.699 45.1893 115.699 44.336V39.456H117.699V44.064C117.699 44.832 117.869 45.408 118.211 45.792C118.563 46.1653 119.059 46.352 119.699 46.352C120.168 46.352 120.573 46.256 120.915 46.064C121.267 45.872 121.539 45.584 121.731 45.2C121.933 44.816 122.035 44.3413 122.035 43.776V39.456H124.035V48H122.131V45.696L122.467 46.4C122.179 46.9547 121.757 47.3813 121.203 47.68C120.648 47.968 120.04 48.112 119.379 48.112ZM136.963 48.16C136.11 48.16 135.315 48.0213 134.579 47.744C133.854 47.456 133.219 47.056 132.675 46.544C132.142 46.0213 131.726 45.408 131.427 44.704C131.128 44 130.979 43.232 130.979 42.4C130.979 41.568 131.128 40.8 131.427 40.096C131.726 39.392 132.147 38.784 132.691 38.272C133.235 37.7493 133.87 37.3493 134.595 37.072C135.32 36.784 136.115 36.64 136.979 36.64C137.896 36.64 138.734 36.8 139.491 37.12C140.248 37.4293 140.888 37.8933 141.411 38.512L140.067 39.776C139.662 39.3387 139.208 39.0133 138.707 38.8C138.206 38.576 137.662 38.464 137.075 38.464C136.488 38.464 135.95 38.56 135.459 38.752C134.979 38.944 134.558 39.216 134.195 39.568C133.843 39.92 133.566 40.336 133.363 40.816C133.171 41.296 133.075 41.824 133.075 42.4C133.075 42.976 133.171 43.504 133.363 43.984C133.566 44.464 133.843 44.88 134.195 45.232C134.558 45.584 134.979 45.856 135.459 46.048C135.95 46.24 136.488 46.336 137.075 46.336C137.662 46.336 138.206 46.2293 138.707 46.016C139.208 45.792 139.662 45.456 140.067 45.008L141.411 46.288C140.888 46.896 140.248 47.36 139.491 47.68C138.734 48 137.891 48.16 136.963 48.16ZM148.654 48V46.272L148.542 45.904V42.88C148.542 42.2933 148.366 41.84 148.014 41.52C147.662 41.1893 147.129 41.024 146.414 41.024C145.934 41.024 145.459 41.0987 144.99 41.248C144.531 41.3973 144.142 41.6053 143.822 41.872L143.038 40.416C143.497 40.064 144.041 39.8027 144.67 39.632C145.31 39.4507 145.971 39.36 146.654 39.36C147.891 39.36 148.846 39.6587 149.518 40.256C150.201 40.8427 150.542 41.7547 150.542 42.992V48H148.654ZM145.966 48.112C145.326 48.112 144.766 48.0053 144.286 47.792C143.806 47.568 143.433 47.264 143.166 46.88C142.91 46.4853 142.782 46.0427 142.782 45.552C142.782 45.072 142.894 44.64 143.118 44.256C143.353 43.872 143.731 43.568 144.254 43.344C144.777 43.12 145.47 43.008 146.334 43.008H148.814V44.336H146.478C145.795 44.336 145.337 44.448 145.102 44.672C144.867 44.8853 144.75 45.152 144.75 45.472C144.75 45.8347 144.894 46.1227 145.182 46.336C145.47 46.5493 145.87 46.656 146.382 46.656C146.873 46.656 147.31 46.544 147.694 46.32C148.089 46.096 148.371 45.7653 148.542 45.328L148.878 46.528C148.686 47.0293 148.339 47.4187 147.838 47.696C147.347 47.9733 146.723 48.112 145.966 48.112ZM158.213 39.36C158.895 39.36 159.503 39.4933 160.037 39.76C160.581 40.0267 161.007 40.4373 161.317 40.992C161.626 41.536 161.781 42.24 161.781 43.104V48H159.781V43.36C159.781 42.6027 159.599 42.0373 159.237 41.664C158.885 41.2907 158.389 41.104 157.749 41.104C157.279 41.104 156.863 41.2 156.501 41.392C156.138 41.584 155.855 41.872 155.653 42.256C155.461 42.6293 155.365 43.104 155.365 43.68V48H153.365V39.456H155.269V41.76L154.933 41.056C155.231 40.512 155.663 40.096 156.229 39.808C156.805 39.5093 157.466 39.36 158.213 39.36ZM21.408 61.952H26.992V63.712H21.408V61.952ZM21.584 68H19.504V56.8H27.68V58.544H21.584V68ZM29.7555 68V59.456H31.7555V68H29.7555ZM30.7635 58.048C30.3902 58.048 30.0808 57.9307 29.8355 57.696C29.6008 57.4613 29.4835 57.1787 29.4835 56.848C29.4835 56.5067 29.6008 56.224 29.8355 56C30.0808 55.7653 30.3902 55.648 30.7635 55.648C31.1368 55.648 31.4408 55.76 31.6755 55.984C31.9208 56.1973 32.0435 56.4693 32.0435 56.8C32.0435 57.152 31.9262 57.4507 31.6915 57.696C31.4568 57.9307 31.1475 58.048 30.7635 58.048ZM39.4845 59.36C40.1672 59.36 40.7752 59.4933 41.3085 59.76C41.8525 60.0267 42.2792 60.4373 42.5885 60.992C42.8978 61.536 43.0525 62.24 43.0525 63.104V68H41.0525V63.36C41.0525 62.6027 40.8712 62.0373 40.5085 61.664C40.1565 61.2907 39.6605 61.104 39.0205 61.104C38.5512 61.104 38.1352 61.2 37.7725 61.392C37.4098 61.584 37.1272 61.872 36.9245 62.256C36.7325 62.6293 36.6365 63.104 36.6365 63.68V68H34.6365V59.456H36.5405V61.76L36.2045 61.056C36.5032 60.512 36.9352 60.096 37.5005 59.808C38.0765 59.5093 38.7378 59.36 39.4845 59.36ZM49.4773 68.112C48.6559 68.112 47.9146 67.9307 47.2532 67.568C46.6026 67.1947 46.0906 66.6827 45.7172 66.032C45.3439 65.3813 45.1572 64.6133 45.1572 63.728C45.1572 62.8427 45.3439 62.0747 45.7172 61.424C46.0906 60.7733 46.6026 60.2667 47.2532 59.904C47.9146 59.5413 48.6559 59.36 49.4773 59.36C50.1919 59.36 50.8319 59.52 51.3973 59.84C51.9626 60.1493 52.4106 60.624 52.7413 61.264C53.0719 61.904 53.2373 62.7253 53.2373 63.728C53.2373 64.72 53.0773 65.5413 52.7572 66.192C52.4372 66.832 51.9946 67.312 51.4292 67.632C50.8639 67.952 50.2132 68.112 49.4773 68.112ZM49.7172 66.4C50.1973 66.4 50.6239 66.2933 50.9973 66.08C51.3812 65.8667 51.6852 65.5573 51.9092 65.152C52.1439 64.7467 52.2613 64.272 52.2613 63.728C52.2613 63.1733 52.1439 62.6987 51.9092 62.304C51.6852 61.8987 51.3812 61.5893 50.9973 61.376C50.6239 61.1627 50.1973 61.056 49.7172 61.056C49.2373 61.056 48.8053 61.1627 48.4212 61.376C48.0479 61.5893 47.7439 61.8987 47.5092 62.304C47.2852 62.6987 47.1732 63.1733 47.1732 63.728C47.1732 64.272 47.2852 64.7467 47.5092 65.152C47.7439 65.5573 48.0479 65.8667 48.4212 66.08C48.8053 66.2933 49.2373 66.4 49.7172 66.4ZM52.3092 68V65.984L52.3892 63.712L52.2292 61.44V56.128H54.2133V68H52.3092ZM67.0435 68V66.272L66.9315 65.904V62.88C66.9315 62.2933 66.7555 61.84 66.4035 61.52C66.0515 61.1893 65.5182 61.024 64.8035 61.024C64.3235 61.024 63.8488 61.0987 63.3795 61.248C62.9208 61.3973 62.5315 61.6053 62.2115 61.872L61.4275 60.416C61.8862 60.064 62.4302 59.8027 63.0595 59.632C63.6995 59.4507 64.3608 59.36 65.0435 59.36C66.2808 59.36 67.2355 59.6587 67.9075 60.256C68.5902 60.8427 68.9315 61.7547 68.9315 62.992V68H67.0435ZM64.3555 68.112C63.7155 68.112 63.1555 68.0053 62.6755 67.792C62.1955 67.568 61.8222 67.264 61.5555 66.88C61.2995 66.4853 61.1715 66.0427 61.1715 65.552C61.1715 65.072 61.2835 64.64 61.5075 64.256C61.7422 63.872 62.1208 63.568 62.6435 63.344C63.1662 63.12 63.8595 63.008 64.7235 63.008H67.2035V64.336H64.8675C64.1848 64.336 63.7262 64.448 63.4915 64.672C63.2568 64.8853 63.1395 65.152 63.1395 65.472C63.1395 65.8347 63.2835 66.1227 63.5715 66.336C63.8595 66.5493 64.2595 66.656 64.7715 66.656C65.2622 66.656 65.6995 66.544 66.0835 66.32C66.4782 66.096 66.7608 65.7653 66.9315 65.328L67.2675 66.528C67.0755 67.0293 66.7288 67.4187 66.2275 67.696C65.7368 67.9733 65.1128 68.112 64.3555 68.112ZM75.5521 71.216C75.1788 71.216 74.8268 71.1733 74.4961 71.088C74.1548 71.0133 73.8668 70.8907 73.6321 70.72L74.2081 69.232C74.5175 69.456 74.9068 69.568 75.3761 69.568C75.7388 69.568 76.0215 69.4507 76.2241 69.216C76.4268 68.992 76.5281 68.656 76.5281 68.208V59.456H78.5281V68.16C78.5281 69.0987 78.2668 69.84 77.7441 70.384C77.2321 70.9387 76.5015 71.216 75.5521 71.216ZM77.5201 58.048C77.1468 58.048 76.8375 57.9307 76.5921 57.696C76.3575 57.4613 76.2401 57.1787 76.2401 56.848C76.2401 56.5067 76.3575 56.224 76.5921 56C76.8375 55.7653 77.1468 55.648 77.5201 55.648C77.8935 55.648 78.1975 55.76 78.4321 55.984C78.6775 56.1973 78.8001 56.4693 78.8001 56.8C78.8001 57.152 78.6828 57.4507 78.4481 57.696C78.2135 57.9307 77.9041 58.048 77.5201 58.048ZM85.2469 68.112C84.3722 68.112 83.5935 67.9253 82.9109 67.552C82.2282 67.168 81.6895 66.6453 81.2949 65.984C80.9002 65.3227 80.7029 64.5707 80.7029 63.728C80.7029 62.8747 80.9002 62.1227 81.2949 61.472C81.6895 60.8107 82.2282 60.2933 82.9109 59.92C83.5935 59.5467 84.3722 59.36 85.2469 59.36C86.1322 59.36 86.9162 59.5467 87.5989 59.92C88.2922 60.2933 88.8309 60.8053 89.2149 61.456C89.6095 62.1067 89.8069 62.864 89.8069 63.728C89.8069 64.5707 89.6095 65.3227 89.2149 65.984C88.8309 66.6453 88.2922 67.168 87.5989 67.552C86.9162 67.9253 86.1322 68.112 85.2469 68.112ZM85.2469 66.4C85.7375 66.4 86.1749 66.2933 86.5589 66.08C86.9429 65.8667 87.2415 65.5573 87.4549 65.152C87.6789 64.7467 87.7909 64.272 87.7909 63.728C87.7909 63.1733 87.6789 62.6987 87.4549 62.304C87.2415 61.8987 86.9429 61.5893 86.5589 61.376C86.1749 61.1627 85.7429 61.056 85.2629 61.056C84.7722 61.056 84.3349 61.1627 83.9509 61.376C83.5775 61.5893 83.2789 61.8987 83.0549 62.304C82.8309 62.6987 82.7189 63.1733 82.7189 63.728C82.7189 64.272 82.8309 64.7467 83.0549 65.152C83.2789 65.5573 83.5775 65.8667 83.9509 66.08C84.3349 66.2933 84.7669 66.4 85.2469 66.4ZM96.7114 68.112C95.986 68.112 95.3407 67.952 94.7754 67.632C94.21 67.312 93.762 66.832 93.4314 66.192C93.1114 65.5413 92.9514 64.72 92.9514 63.728C92.9514 62.7253 93.1167 61.904 93.4474 61.264C93.7887 60.624 94.242 60.1493 94.8074 59.84C95.3834 59.52 96.018 59.36 96.7114 59.36C97.554 59.36 98.2954 59.5413 98.9354 59.904C99.586 60.2667 100.098 60.7733 100.471 61.424C100.855 62.0747 101.047 62.8427 101.047 63.728C101.047 64.6133 100.855 65.3813 100.471 66.032C100.098 66.6827 99.586 67.1947 98.9354 67.568C98.2954 67.9307 97.554 68.112 96.7114 68.112ZM91.9754 68V56.128H93.9754V61.44L93.8154 63.712L93.8794 65.984V68H91.9754ZM96.4874 66.4C96.9674 66.4 97.394 66.2933 97.7674 66.08C98.1514 65.8667 98.4554 65.5573 98.6794 65.152C98.9034 64.7467 99.0154 64.272 99.0154 63.728C99.0154 63.1733 98.9034 62.6987 98.6794 62.304C98.4554 61.8987 98.1514 61.5893 97.7674 61.376C97.394 61.1627 96.9674 61.056 96.4874 61.056C96.0074 61.056 95.5754 61.1627 95.1914 61.376C94.8074 61.5893 94.5034 61.8987 94.2794 62.304C94.0554 62.6987 93.9434 63.1733 93.9434 63.728C93.9434 64.272 94.0554 64.7467 94.2794 65.152C94.5034 65.5573 94.8074 65.8667 95.1914 66.08C95.5754 66.2933 96.0074 66.4 96.4874 66.4ZM109.99 61.456H115.558V63.168H109.99V61.456ZM110.15 66.256H116.47V68H108.07V56.8H116.246V58.544H110.15V66.256ZM124.039 68V66.272L123.927 65.904V62.88C123.927 62.2933 123.751 61.84 123.399 61.52C123.047 61.1893 122.513 61.024 121.799 61.024C121.319 61.024 120.844 61.0987 120.375 61.248C119.916 61.3973 119.527 61.6053 119.207 61.872L118.423 60.416C118.881 60.064 119.425 59.8027 120.055 59.632C120.695 59.4507 121.356 59.36 122.039 59.36C123.276 59.36 124.231 59.6587 124.903 60.256C125.585 60.8427 125.927 61.7547 125.927 62.992V68H124.039ZM121.351 68.112C120.711 68.112 120.151 68.0053 119.671 67.792C119.191 67.568 118.817 67.264 118.551 66.88C118.295 66.4853 118.167 66.0427 118.167 65.552C118.167 65.072 118.279 64.64 118.503 64.256C118.737 63.872 119.116 63.568 119.639 63.344C120.161 63.12 120.855 63.008 121.719 63.008H124.199V64.336H121.863C121.18 64.336 120.721 64.448 120.487 64.672C120.252 64.8853 120.135 65.152 120.135 65.472C120.135 65.8347 120.279 66.1227 120.567 66.336C120.855 66.5493 121.255 66.656 121.767 66.656C122.257 66.656 122.695 66.544 123.079 66.32C123.473 66.096 123.756 65.7653 123.927 65.328L124.263 66.528C124.071 67.0293 123.724 67.4187 123.223 67.696C122.732 67.9733 122.108 68.112 121.351 68.112ZM131.389 68.112C130.675 68.112 129.987 68.0213 129.325 67.84C128.675 67.648 128.157 67.4187 127.773 67.152L128.541 65.632C128.925 65.8773 129.384 66.08 129.917 66.24C130.451 66.4 130.984 66.48 131.517 66.48C132.147 66.48 132.6 66.3947 132.877 66.224C133.165 66.0533 133.309 65.824 133.309 65.536C133.309 65.3013 133.213 65.1253 133.021 65.008C132.829 64.88 132.579 64.784 132.269 64.72C131.96 64.656 131.613 64.5973 131.229 64.544C130.856 64.4907 130.477 64.4213 130.093 64.336C129.72 64.24 129.379 64.1067 129.069 63.936C128.76 63.7547 128.509 63.5147 128.317 63.216C128.125 62.9173 128.029 62.5227 128.029 62.032C128.029 61.488 128.184 61.0187 128.493 60.624C128.803 60.2187 129.235 59.9093 129.789 59.696C130.355 59.472 131.021 59.36 131.789 59.36C132.365 59.36 132.947 59.424 133.533 59.552C134.12 59.68 134.605 59.8613 134.989 60.096L134.221 61.616C133.816 61.3707 133.405 61.2053 132.989 61.12C132.584 61.024 132.179 60.976 131.773 60.976C131.165 60.976 130.712 61.0667 130.413 61.248C130.125 61.4293 129.981 61.6587 129.981 61.936C129.981 62.192 130.077 62.384 130.269 62.512C130.461 62.64 130.712 62.7413 131.021 62.816C131.331 62.8907 131.672 62.9547 132.045 63.008C132.429 63.0507 132.808 63.12 133.181 63.216C133.555 63.312 133.896 63.4453 134.205 63.616C134.525 63.776 134.781 64.0053 134.973 64.304C135.165 64.6027 135.261 64.992 135.261 65.472C135.261 66.0053 135.101 66.4693 134.781 66.864C134.472 67.2587 134.029 67.568 133.453 67.792C132.877 68.0053 132.189 68.112 131.389 68.112ZM137.24 68V59.456H139.24V68H137.24ZM138.248 58.048C137.874 58.048 137.565 57.9307 137.32 57.696C137.085 57.4613 136.968 57.1787 136.968 56.848C136.968 56.5067 137.085 56.224 137.32 56C137.565 55.7653 137.874 55.648 138.248 55.648C138.621 55.648 138.925 55.76 139.16 55.984C139.405 56.1973 139.528 56.4693 139.528 56.8C139.528 57.152 139.41 57.4507 139.176 57.696C138.941 57.9307 138.632 58.048 138.248 58.048ZM142.121 68V56.128H144.121V68H142.121ZM147.706 71.216C147.29 71.216 146.874 71.1467 146.458 71.008C146.042 70.8693 145.695 70.6773 145.418 70.432L146.218 68.96C146.42 69.1413 146.65 69.2853 146.906 69.392C147.162 69.4987 147.423 69.552 147.69 69.552C148.052 69.552 148.346 69.4613 148.57 69.28C148.794 69.0987 149.002 68.7947 149.194 68.368L149.69 67.248L149.85 67.008L153.082 59.456H155.002L151.002 68.688C150.735 69.328 150.436 69.8347 150.106 70.208C149.786 70.5813 149.423 70.8427 149.018 70.992C148.623 71.1413 148.186 71.216 147.706 71.216ZM149.466 68.304L145.61 59.456H147.69L150.826 66.832L149.466 68.304Z" fill="white"/>
<rect x="18.5" y="87.5" width="135" height="44" rx="22" fill="white"/>
<rect x="18.5" y="87.5" width="135" height="44" rx="22" stroke="#E6E6E6"/>
<path d="M47.6261 115V105.2H51.6581C52.5261 105.2 53.2681 105.34 53.8841 105.62C54.5094 105.9 54.9901 106.301 55.3261 106.824C55.6621 107.347 55.8301 107.967 55.8301 108.686C55.8301 109.405 55.6621 110.025 55.3261 110.548C54.9901 111.061 54.5094 111.458 53.8841 111.738C53.2681 112.009 52.5261 112.144 51.6581 112.144H48.6341L49.4461 111.318V115H47.6261ZM54.0381 115L51.5601 111.444H53.5061L55.9981 115H54.0381ZM49.4461 111.514L48.6341 110.646H51.5741C52.3767 110.646 52.9787 110.473 53.3801 110.128C53.7907 109.783 53.9961 109.302 53.9961 108.686C53.9961 108.061 53.7907 107.58 53.3801 107.244C52.9787 106.908 52.3767 106.74 51.5741 106.74H48.6341L49.4461 105.844V111.514ZM61.4363 115.098C60.6056 115.098 59.8776 114.935 59.2523 114.608C58.6363 114.272 58.1556 113.815 57.8103 113.236C57.4743 112.657 57.3063 111.999 57.3063 111.262C57.3063 110.515 57.4696 109.857 57.7963 109.288C58.1323 108.709 58.5896 108.257 59.1683 107.93C59.7563 107.603 60.4236 107.44 61.1703 107.44C61.8983 107.44 62.547 107.599 63.1163 107.916C63.6856 108.233 64.1336 108.681 64.4603 109.26C64.787 109.839 64.9503 110.52 64.9503 111.304C64.9503 111.379 64.9456 111.463 64.9363 111.556C64.9363 111.649 64.9316 111.738 64.9223 111.822H58.6923V110.66H63.9983L63.3123 111.024C63.3216 110.595 63.233 110.217 63.0463 109.89C62.8596 109.563 62.603 109.307 62.2763 109.12C61.959 108.933 61.5903 108.84 61.1703 108.84C60.741 108.84 60.363 108.933 60.0363 109.12C59.719 109.307 59.467 109.568 59.2803 109.904C59.103 110.231 59.0143 110.618 59.0143 111.066V111.346C59.0143 111.794 59.117 112.191 59.3223 112.536C59.5276 112.881 59.817 113.147 60.1903 113.334C60.5636 113.521 60.993 113.614 61.4783 113.614C61.8983 113.614 62.2763 113.549 62.6123 113.418C62.9483 113.287 63.247 113.082 63.5083 112.802L64.4463 113.88C64.1103 114.272 63.6856 114.575 63.1723 114.79C62.6683 114.995 62.0896 115.098 61.4363 115.098ZM71.2562 115V113.488L71.1582 113.166V110.52C71.1582 110.007 71.0042 109.61 70.6962 109.33C70.3882 109.041 69.9215 108.896 69.2962 108.896C68.8762 108.896 68.4609 108.961 68.0502 109.092C67.6489 109.223 67.3082 109.405 67.0282 109.638L66.3422 108.364C66.7435 108.056 67.2195 107.827 67.7702 107.678C68.3302 107.519 68.9089 107.44 69.5062 107.44C70.5889 107.44 71.4242 107.701 72.0122 108.224C72.6095 108.737 72.9082 109.535 72.9082 110.618V115H71.2562ZM68.9042 115.098C68.3442 115.098 67.8542 115.005 67.4342 114.818C67.0142 114.622 66.6875 114.356 66.4542 114.02C66.2302 113.675 66.1182 113.287 66.1182 112.858C66.1182 112.438 66.2162 112.06 66.4122 111.724C66.6175 111.388 66.9489 111.122 67.4062 110.926C67.8635 110.73 68.4702 110.632 69.2262 110.632H71.3962V111.794H69.3522C68.7549 111.794 68.3535 111.892 68.1482 112.088C67.9429 112.275 67.8402 112.508 67.8402 112.788C67.8402 113.105 67.9662 113.357 68.2182 113.544C68.4702 113.731 68.8202 113.824 69.2682 113.824C69.6975 113.824 70.0802 113.726 70.4162 113.53C70.7615 113.334 71.0089 113.045 71.1582 112.662L71.4522 113.712C71.2842 114.151 70.9809 114.491 70.5422 114.734C70.1129 114.977 69.5669 115.098 68.9042 115.098ZM78.5558 115.098C77.8371 115.098 77.1884 114.939 76.6098 114.622C76.0404 114.295 75.5924 113.847 75.2658 113.278C74.9391 112.709 74.7758 112.037 74.7758 111.262C74.7758 110.487 74.9391 109.815 75.2658 109.246C75.5924 108.677 76.0404 108.233 76.6098 107.916C77.1884 107.599 77.8371 107.44 78.5558 107.44C79.1811 107.44 79.7411 107.58 80.2358 107.86C80.7304 108.131 81.1224 108.546 81.4118 109.106C81.7011 109.666 81.8458 110.385 81.8458 111.262C81.8458 112.13 81.7058 112.849 81.4258 113.418C81.1458 113.978 80.7584 114.398 80.2638 114.678C79.7691 114.958 79.1998 115.098 78.5558 115.098ZM78.7658 113.6C79.1858 113.6 79.5591 113.507 79.8858 113.32C80.2218 113.133 80.4878 112.863 80.6838 112.508C80.8891 112.153 80.9918 111.738 80.9918 111.262C80.9918 110.777 80.8891 110.361 80.6838 110.016C80.4878 109.661 80.2218 109.391 79.8858 109.204C79.5591 109.017 79.1858 108.924 78.7658 108.924C78.3458 108.924 77.9678 109.017 77.6318 109.204C77.3051 109.391 77.0391 109.661 76.8338 110.016C76.6378 110.361 76.5398 110.777 76.5398 111.262C76.5398 111.738 76.6378 112.153 76.8338 112.508C77.0391 112.863 77.3051 113.133 77.6318 113.32C77.9678 113.507 78.3458 113.6 78.7658 113.6ZM81.0338 115V113.236L81.1038 111.248L80.9638 109.26V104.612H82.6998V115H81.0338ZM89.4882 115V105.2H90.9862L95.2702 112.354H94.4862L98.7002 105.2H100.198L100.212 115H98.4902L98.4762 107.902H98.8402L95.2562 113.88H94.4442L90.8042 107.902H91.2242V115H89.4882ZM106.275 115.098C105.51 115.098 104.829 114.935 104.231 114.608C103.634 114.272 103.163 113.815 102.817 113.236C102.472 112.657 102.299 111.999 102.299 111.262C102.299 110.515 102.472 109.857 102.817 109.288C103.163 108.709 103.634 108.257 104.231 107.93C104.829 107.603 105.51 107.44 106.275 107.44C107.05 107.44 107.736 107.603 108.333 107.93C108.94 108.257 109.411 108.705 109.747 109.274C110.093 109.843 110.265 110.506 110.265 111.262C110.265 111.999 110.093 112.657 109.747 113.236C109.411 113.815 108.94 114.272 108.333 114.608C107.736 114.935 107.05 115.098 106.275 115.098ZM106.275 113.6C106.705 113.6 107.087 113.507 107.423 113.32C107.759 113.133 108.021 112.863 108.207 112.508C108.403 112.153 108.501 111.738 108.501 111.262C108.501 110.777 108.403 110.361 108.207 110.016C108.021 109.661 107.759 109.391 107.423 109.204C107.087 109.017 106.709 108.924 106.289 108.924C105.86 108.924 105.477 109.017 105.141 109.204C104.815 109.391 104.553 109.661 104.357 110.016C104.161 110.361 104.063 110.777 104.063 111.262C104.063 111.738 104.161 112.153 104.357 112.508C104.553 112.863 104.815 113.133 105.141 113.32C105.477 113.507 105.855 113.6 106.275 113.6ZM112.163 115V107.524H113.829V109.582L113.633 108.98C113.857 108.476 114.207 108.093 114.683 107.832C115.168 107.571 115.77 107.44 116.489 107.44V109.106C116.414 109.087 116.344 109.078 116.279 109.078C116.213 109.069 116.148 109.064 116.083 109.064C115.42 109.064 114.893 109.26 114.501 109.652C114.109 110.035 113.913 110.609 113.913 111.374V115H112.163ZM121.643 115.098C120.812 115.098 120.084 114.935 119.459 114.608C118.843 114.272 118.362 113.815 118.017 113.236C117.681 112.657 117.513 111.999 117.513 111.262C117.513 110.515 117.676 109.857 118.003 109.288C118.339 108.709 118.796 108.257 119.375 107.93C119.963 107.603 120.63 107.44 121.377 107.44C122.105 107.44 122.754 107.599 123.323 107.916C123.892 108.233 124.34 108.681 124.667 109.26C124.994 109.839 125.157 110.52 125.157 111.304C125.157 111.379 125.152 111.463 125.143 111.556C125.143 111.649 125.138 111.738 125.129 111.822H118.899V110.66H124.205L123.519 111.024C123.528 110.595 123.44 110.217 123.253 109.89C123.066 109.563 122.81 109.307 122.483 109.12C122.166 108.933 121.797 108.84 121.377 108.84C120.948 108.84 120.57 108.933 120.243 109.12C119.926 109.307 119.674 109.568 119.487 109.904C119.31 110.231 119.221 110.618 119.221 111.066V111.346C119.221 111.794 119.324 112.191 119.529 112.536C119.734 112.881 120.024 113.147 120.397 113.334C120.77 113.521 121.2 113.614 121.685 113.614C122.105 113.614 122.483 113.549 122.819 113.418C123.155 113.287 123.454 113.082 123.715 112.802L124.653 113.88C124.317 114.272 123.892 114.575 123.379 114.79C122.875 114.995 122.296 115.098 121.643 115.098Z" fill="#246BFE"/>
</svg>
