<svg width="20" height="18" viewBox="0 0 20 18" fill="none" xmlns="http://www.w3.org/2000/svg">
<path fill-rule="evenodd" clip-rule="evenodd" d="M3 1.75C2.30964 1.75 1.75 2.30964 1.75 3C1.75 3.69036 2.30964 4.25 3 4.25C3.69036 4.25 4.25 3.69036 4.25 3C4.25 2.30964 3.69036 1.75 3 1.75ZM0.25 3C0.25 1.48122 1.48122 0.25 3 0.25C4.51878 0.25 5.75 1.48122 5.75 3C5.75 4.25878 4.90425 5.32002 3.75 5.64648V17C3.75 17.4142 3.41421 17.75 3 17.75C2.58579 17.75 2.25 17.4142 2.25 17V5.64648C1.09575 5.32002 0.25 4.25878 0.25 3ZM10 0.25C10.4142 0.25 10.75 0.585786 10.75 1V12.3535C11.9043 12.68 12.75 13.7412 12.75 15C12.75 16.5188 11.5188 17.75 10 17.75C8.48122 17.75 7.25 16.5188 7.25 15C7.25 13.7412 8.09575 12.68 9.25 12.3535V1C9.25 0.585786 9.58579 0.25 10 0.25ZM17 0.25C17.4142 0.25 17.75 0.585786 17.75 1V6.35352C18.9043 6.67998 19.75 7.74122 19.75 9C19.75 10.2588 18.9043 11.32 17.75 11.6465V17C17.75 17.4142 17.4142 17.75 17 17.75C16.5858 17.75 16.25 17.4142 16.25 17V11.6465C15.0957 11.32 14.25 10.2588 14.25 9C14.25 7.74122 15.0957 6.67998 16.25 6.35352V1C16.25 0.585786 16.5858 0.25 17 0.25ZM17 7.75C16.3096 7.75 15.75 8.30964 15.75 9C15.75 9.69036 16.3096 10.25 17 10.25C17.6904 10.25 18.25 9.69036 18.25 9C18.25 8.30964 17.6904 7.75 17 7.75ZM10 13.75C9.30964 13.75 8.75 14.3096 8.75 15C8.75 15.6904 9.30964 16.25 10 16.25C10.6904 16.25 11.25 15.6904 11.25 15C11.25 14.3096 10.6904 13.75 10 13.75Z" fill="#212121"/>
</svg>
