<svg width="164" height="160" viewBox="0 0 164 160" fill="none" xmlns="http://www.w3.org/2000/svg">
<path d="M81.6846 38.5781C122.829 38.5781 156.45 66.4489 156.45 100.935C156.45 114.088 143.718 124.661 128.225 124.661C112.732 124.661 99.999 114.088 99.999 100.935C99.9987 92.8466 91.9488 86.1096 81.7754 86.1094C71.6018 86.1094 63.5511 92.8465 63.5508 100.935C63.5508 114.289 69.4222 126.795 80.2129 136.187H80.2119C88.6941 143.552 96.8099 147.627 109.431 150.691H109.432C112.092 151.297 113.664 153.753 112.956 156.117L112.957 156.118C112.439 158.209 110.304 159.5 108.24 159.5C107.823 159.5 107.33 159.411 106.963 159.33L106.952 159.328C92.5721 155.836 83.136 151.142 73.2568 142.631L73.2549 142.629C60.552 131.561 53.5488 116.811 53.5488 101.014C53.549 87.8607 66.2825 77.2881 81.7754 77.2881C97.2681 77.2883 110.001 87.8608 110.001 101.014C110.001 109.102 118.051 115.84 128.225 115.84C138.398 115.84 146.448 109.102 146.448 101.014C146.448 71.5918 117.509 47.5566 81.6846 47.5566C56.2662 47.5568 33.0505 59.9686 22.6221 79.1328L22.6211 79.1348C19.1559 85.451 17.3721 92.8711 17.3721 101.014C17.3721 107.129 17.9949 116.773 23.3604 129.332H23.3613C24.3991 131.7 23.0216 134.282 20.4375 135.067L20.4365 135.066C17.8875 135.918 14.9912 134.737 14.0684 132.487V132.486C9.63474 122.082 7.45996 111.747 7.45996 101.014C7.46001 91.4598 9.54662 82.7658 13.6406 75.1807L13.6416 75.1797L14.2188 74.1436C26.5536 52.5038 52.9167 38.5782 81.6846 38.5781ZM82.0449 57.9326C110.319 57.9326 133.495 77.1945 133.495 101.014C133.495 103.561 131.227 105.464 128.494 105.464C125.761 105.464 123.493 103.561 123.493 101.014C123.493 82.2567 104.997 66.833 82.0449 66.833C59.0934 66.833 40.5969 82.2567 40.5967 101.014C40.5967 111.953 43.2798 122.066 48.3867 130.361L48.8887 131.158L48.8906 131.161L49.4219 131.993C54.5147 139.891 58.2496 143.714 64.1914 149.047L65.4541 150.173L65.4609 150.18L65.6357 150.35C67.3835 152.131 67.3254 154.801 65.4609 156.523L65.4336 156.547C64.3554 157.407 63.0751 157.841 61.791 157.841C60.5258 157.841 59.2306 157.417 58.3105 156.531V156.532C50.4523 149.636 46.1869 145.176 40.125 135.568V135.569C33.8566 125.763 30.5947 113.817 30.5947 101.014C30.5949 77.1945 53.7709 57.9327 82.0449 57.9326ZM81.5049 96.5645C84.2381 96.5645 86.5057 98.4664 86.5059 101.014C86.5059 111.778 92.6717 121.981 103.218 128.404L103.724 128.707L103.725 128.708L104.318 129.053C110.486 132.556 117.681 134.247 126.334 134.247C128.2 134.247 131.171 134.067 134.281 133.654L135.62 133.463C138.264 133.035 140.892 134.575 141.406 137.093L141.448 137.324C141.81 139.71 139.954 141.853 137.309 142.27L137.31 142.271C132.141 143.146 127.609 143.226 126.334 143.226C115.55 143.226 106.006 140.839 98.1729 136.124V136.125C84.6334 128.071 76.5039 114.963 76.5039 101.014C76.5041 98.4664 78.7717 96.5645 81.5049 96.5645ZM35.3896 29.458C63.7858 16.6012 100.123 16.5217 128.61 29.3789H128.609C142.179 35.4922 153.586 44.1505 162.55 55.1953H162.549C164.194 57.1851 163.651 60.0569 161.342 61.4668C159.079 62.8485 156.001 62.4376 154.388 60.4023V60.4014C146.589 50.8218 136.776 43.2289 125.187 37.8369L124.059 37.3223C98.3536 25.7678 65.4671 25.7683 39.8535 37.4004H39.8525C27.6851 42.8965 17.4892 50.7443 9.43945 60.6299C8.59603 61.8993 7.07089 62.4883 5.5293 62.4883C4.54104 62.4883 3.55332 62.2281 2.66602 61.709L2.6582 61.7041C0.343045 60.2907 -0.188507 57.4992 1.44629 55.4365L1.44922 55.4336L2.29688 54.3975C10.8426 44.1092 21.5279 35.9244 34.124 30.0391L35.3896 29.458ZM82.1348 0.5C101.383 0.5 118.197 4.23014 136.622 12.5527H136.624L136.853 12.6641C139.16 13.8513 140.036 16.4302 138.74 18.5479L138.741 18.5488C137.832 20.144 136.125 21.0127 134.346 21.0127C133.555 21.0127 132.756 20.8401 132.051 20.4863V20.4854C114.836 12.698 99.9668 9.40039 82.1348 9.40039C64.3817 9.40043 47.5331 13.098 32.2119 20.4893L32.209 20.4902C29.837 21.6177 26.8627 20.8501 25.457 18.7354L25.4521 18.7285L25.4482 18.7217C24.1036 16.543 25.0621 13.7754 27.459 12.6357L29.04 11.8955C45.425 4.36965 63.3161 0.500036 82.1348 0.5Z" fill="#246BFE" stroke="#F69A28"/>
</svg>
