<svg width="50" height="51" viewBox="0 0 50 51" fill="none" xmlns="http://www.w3.org/2000/svg">
<path fill-rule="evenodd" clip-rule="evenodd" d="M49.98 26.0796C49.98 24.2714 49.8177 22.5327 49.5164 20.8636H25.5V30.7275H39.2236C38.6325 33.915 36.8359 36.6157 34.1352 38.4239V44.8221H42.3764C47.1982 40.3827 49.98 33.8455 49.98 26.0796Z" fill="#4285F4"/>
<path fill-rule="evenodd" clip-rule="evenodd" d="M25.5001 51C32.3851 51 38.1574 48.7166 42.3765 44.822L34.1354 38.4238C31.8519 39.9538 28.931 40.8579 25.5001 40.8579C18.8585 40.8579 13.2369 36.3722 11.2317 30.345H2.7124V36.9518C6.90831 45.2857 15.5319 51 25.5001 51Z" fill="#34A853"/>
<path fill-rule="evenodd" clip-rule="evenodd" d="M11.2316 30.345C10.7216 28.815 10.4318 27.1807 10.4318 25.5C10.4318 23.8194 10.7216 22.185 11.2316 20.655V14.0482H2.71227C0.985227 17.4907 0 21.3853 0 25.5C0 29.6148 0.985227 33.5094 2.71227 36.9519L11.2316 30.345Z" fill="#FBBC05"/>
<path fill-rule="evenodd" clip-rule="evenodd" d="M25.5001 10.142C29.244 10.142 32.6054 11.4286 35.2481 13.9555L42.5619 6.64159C38.1458 2.52682 32.3735 0 25.5001 0C15.5319 0 6.90831 5.71432 2.7124 14.0482L11.2317 20.655C13.2369 14.6277 18.8585 10.142 25.5001 10.142Z" fill="#EA4335"/>
</svg>
