<svg width="18" height="21" viewBox="0 0 18 21" fill="none" xmlns="http://www.w3.org/2000/svg">
<path fill-rule="evenodd" clip-rule="evenodd" d="M9 2.3916C4.99594 2.3916 1.75 5.63754 1.75 9.6416C1.75 13.3746 4.60187 16.5808 8.52484 18.5812C8.82346 18.7334 9.17654 18.7334 9.47516 18.5812C13.3981 16.5808 16.25 13.3746 16.25 9.6416C16.25 5.63754 13.0041 2.3916 9 2.3916ZM0.25 9.6416C0.25 4.80911 4.16751 0.891602 9 0.891602C13.8325 0.891602 17.75 4.80911 17.75 9.6416C17.75 14.1943 14.3037 17.8028 10.1566 19.9175C9.42989 20.288 8.57011 20.288 7.84344 19.9175L8.18414 19.2493L7.84344 19.9175C3.6963 17.8028 0.25 14.1943 0.25 9.6416ZM9 7.3916C7.75736 7.3916 6.75 8.39896 6.75 9.6416C6.75 10.8842 7.75736 11.8916 9 11.8916C10.2426 11.8916 11.25 10.8842 11.25 9.6416C11.25 8.39896 10.2426 7.3916 9 7.3916ZM5.25 9.6416C5.25 7.57053 6.92893 5.8916 9 5.8916C11.0711 5.8916 12.75 7.57053 12.75 9.6416C12.75 11.7127 11.0711 13.3916 9 13.3916C6.92893 13.3916 5.25 11.7127 5.25 9.6416Z" fill="#001A72"/>
</svg>
