<svg width="282" height="477" viewBox="0 0 282 477" fill="none" xmlns="http://www.w3.org/2000/svg">
<ellipse cx="27.5" cy="128.5" rx="13.5" ry="14.5" fill="#4E80C5"/>
<circle cx="120" cy="194" r="10" fill="#D8E6F4"/>
<circle cx="130" cy="109" r="10" fill="#4E80C5"/>
<ellipse cx="213" cy="155.5" rx="8" ry="7.5" fill="#D8E6F4"/>
<rect width="282" height="229" transform="translate(0 248)" fill="white"/>
<path d="M101.452 419.865C103.709 419.189 106.023 418.653 108.373 418.262L108.657 419.143C108.689 419.247 108.764 419.338 108.869 419.399C108.973 419.46 109.1 419.487 109.226 419.475L118.531 418.559C121.091 413.624 125.791 406.147 125.859 406.033C125.791 404.167 125.859 402.598 125.859 400.812C120.536 402.483 110.689 405.655 105.542 407.682C105.426 407.745 105.336 407.838 105.285 407.947C105.234 408.055 105.224 408.175 105.258 408.289C105.258 408.289 105.352 408.575 105.474 408.987C102.955 408.987 95.4108 408.678 93.5959 410.132C93.3137 410.464 93.175 410.869 93.2031 411.277C93.0947 412.857 94.0293 425.132 95.5192 428.738C96.2912 430.628 97.9166 430.421 99.0272 428.612C100.313 425.888 101.138 423.024 101.479 420.105C101.479 419.956 101.438 419.968 101.452 419.865ZM99.8941 409.617C101.546 409.502 102.061 409.525 105.61 409.434C106.246 411.472 107.56 415.662 108.237 417.804C105.848 418.116 103.489 418.58 101.181 419.189C100.462 416.031 100.031 412.831 99.8941 409.617Z" fill="black"/>
<path d="M226.113 309.406C226.452 309.005 226.018 308.49 225.653 308.089C226.689 307.189 227.838 306.386 229.079 305.696C231.175 304.814 233.091 303.654 234.755 302.261C235.445 301.655 236.746 300.407 236.258 299.674C235.77 298.941 234.904 298.895 233.725 299.319C234.236 298.866 234.652 298.343 234.958 297.773C235.337 296.88 234.443 296.159 232.506 296.823C233.211 295.872 233.373 294.876 232.181 294.395C231.219 294.006 229.811 294.933 228.998 295.54C227.402 296.719 225.904 297.989 224.515 299.342C223.662 297.83 222.307 296.09 220.614 296.639C218.921 297.189 220.235 299.651 221.102 300.99L218.027 302.788C217.563 302.576 217.037 302.477 216.51 302.502C213.016 303.006 196.966 313.334 195.34 313.334C194.094 313.334 176.297 306.12 160.91 304.036C160.881 303.958 160.825 303.889 160.751 303.836C160.677 303.784 160.586 303.75 160.49 303.738C157.807 303.351 155.086 303.179 152.364 303.223C152.281 303.228 152.201 303.248 152.128 303.281C152.056 303.315 151.993 303.362 151.944 303.418H150.806C150.535 302.49 149.533 300.349 149.181 299.525C150.102 298.849 151.375 298.506 152.039 297.418C153.258 295.403 153.204 291.899 152.865 289.655C154.395 288.67 154.436 287.09 154.084 285.476C153.948 284.823 153.529 283.346 152.878 282.98C152.513 282.774 151.741 282.98 151.077 283.186C150.413 281.88 150.413 282.476 150.684 281.949C150.81 281.706 150.883 281.447 150.901 281.182C151.619 281.365 153.109 280.151 152.594 278.548C152.324 277.975 151.993 277.423 151.605 276.9C151.795 276.51 152.201 276.041 150.928 274.61C150.38 274.11 149.668 273.759 148.883 273.602H148.26C147.811 273.051 147.151 272.646 146.391 272.457C145.243 272.21 144.027 272.354 143.005 272.858C142.734 273.03 142.517 273.259 142.246 273.419C141.634 273.105 140.931 272.938 140.214 272.938C139.498 272.938 138.795 273.105 138.183 273.419C137.824 273.538 137.498 273.717 137.223 273.945C136.949 274.173 136.731 274.446 136.584 274.747C135.921 274.554 135.217 274.479 134.517 274.528C133.818 274.578 133.138 274.75 132.521 275.033C130.181 276.106 128.431 277.91 127.645 280.06C127.623 280.384 127.623 280.709 127.645 281.033H127.496C125.464 280.781 122.878 284.857 124.95 288.029C125.194 288.407 125.505 288.762 125.803 289.174C126.67 290.319 126.331 290.663 128.268 292.059C128.837 292.472 128.932 292.437 129.284 292.689C129.636 292.941 129.501 292.815 129.704 293.456C129.815 293.834 130.013 294.19 130.287 294.502C130.562 294.815 130.907 295.078 131.302 295.277C131.446 296.397 132.011 297.448 132.914 298.277C133.2 298.547 133.533 298.779 133.903 298.964C134.002 299.011 134.114 299.039 134.228 299.044C134.634 301.174 135.135 303.945 135.352 305.124L134.146 305.674C132.569 306.21 131.035 306.833 129.555 307.54C129.439 307.608 129.357 307.71 129.325 307.826C127.889 308.467 126.535 309.074 125.762 309.463C115.008 314.856 84.4655 350.409 84.154 352.035C84.1196 352.128 84.1196 352.228 84.154 352.321C84.5917 352.911 85.1251 353.447 85.7386 353.912C85.5496 354.204 85.3224 354.477 85.0614 354.725C82.3525 356.225 78.2892 358.458 76.1086 360.45C75.9556 360.566 75.8409 360.713 75.7756 360.877C75.7104 361.041 75.697 361.217 75.7366 361.387C75.7763 361.557 75.8677 361.715 76.0018 361.846C76.1359 361.977 76.3081 362.076 76.5013 362.133C76.9077 362.248 76.9754 362.214 79.6166 360.988C78.8907 361.527 78.297 362.18 77.8693 362.912C77.6933 363.542 78.3705 363.908 79.2238 363.794C79.7039 363.687 80.161 363.517 80.5782 363.29C80.3339 363.609 80.2039 363.981 80.2039 364.361C80.2039 364.74 80.3339 365.112 80.5782 365.431C81.9327 366.874 85.4813 362.328 87.3504 361.206C88.1089 362.019 89.1383 363.92 90.7772 363.416C92.1993 362.969 90.6417 360.324 90.7772 359.557C91.3283 359.11 91.9167 358.697 92.538 358.321C93.5828 358.976 94.7775 359.44 96.046 359.683C98.2808 359.683 121.604 339.783 123.379 338.192C122.742 343.252 119.532 364.973 120.209 369.198C120.521 371.11 125.952 371.385 128.241 371.488C127.55 385.228 127.09 406.044 126.968 406.262C123.379 412.8 122.403 414.586 121.198 416.567C119.004 420.116 109.766 433.215 108.724 436.192C108.575 436.662 108.561 436.845 109.143 437.715C107.398 439.266 105.778 440.915 104.295 442.65C103.55 443.795 106.746 454.466 109.008 458.245C109.523 459.092 110.362 460.397 111.487 460.363C114.873 460.26 114.859 449.978 114.764 447.104C114.764 447.015 114.725 446.93 114.656 446.863C115.27 446.089 115.939 445.347 116.661 444.642C117.091 444.893 117.544 445.115 118.015 445.306C118.476 445.478 118.99 445.18 119.369 444.917C123.88 441.917 148.206 416.292 153.42 404.201C155.791 398.682 158.946 391.056 159.84 385.652C160.387 382.235 160.437 378.774 159.989 375.347C159.989 375.298 160.012 375.252 160.053 375.217C160.093 375.183 160.149 375.164 160.206 375.164C160.263 375.164 160.319 375.183 160.359 375.217C160.4 375.252 160.423 375.298 160.423 375.347C161.101 378.794 161.233 382.301 160.815 385.778C159.813 393.277 152.811 408.907 149.072 414.655C152.296 414.151 158.852 413.052 162.021 412.25C172.586 409.536 182.338 401.441 183.191 392.35C183.467 388.067 183.467 383.775 183.191 379.492C183.099 373.579 182.19 367.696 180.482 361.962C183.353 360.645 185.981 359.099 186.834 357.679C188.663 354.645 183.827 337.184 182.771 332.283C188.555 332.821 198.401 333.795 202.993 330.76C208.248 327.188 219.598 317.135 226.113 309.406ZM114.033 446.474C111.595 445.226 108.182 442.261 107.667 439.936C108.222 439.341 108.805 438.791 109.347 438.173C111.182 440.541 113.471 442.634 116.119 444.367C115.375 445.034 114.678 445.738 114.033 446.474ZM221.711 301.311C221.781 301.273 221.832 301.214 221.852 301.146C221.872 301.078 221.86 301.006 221.82 300.945C221.346 300.2 219.923 297.578 220.912 297.281C221.481 297.097 221.982 297.395 222.402 297.796C223.043 298.484 223.542 299.258 223.878 300.086C223.903 300.153 223.95 300.214 224.012 300.26C224.075 300.307 224.151 300.339 224.233 300.352C224.315 300.365 224.4 300.358 224.478 300.334C224.557 300.309 224.625 300.267 224.678 300.212C226.032 298.941 229.201 296.044 230.989 295.265C232.344 294.67 232.669 295.769 229.35 298.334C228.588 298.825 227.856 299.349 227.156 299.903C227.118 299.948 227.097 300.002 227.097 300.057C227.097 300.113 227.118 300.167 227.156 300.212C227.156 300.51 227.441 300.842 227.928 300.532C229.106 299.659 230.35 298.852 231.653 298.117C232.318 297.717 233.091 297.465 233.901 297.384C233.495 298.437 229.716 301.3 229.391 301.62C229.288 301.698 229.225 301.808 229.216 301.924C229.208 302.041 229.253 302.156 229.344 302.245C229.435 302.333 229.563 302.388 229.701 302.398C229.839 302.407 229.975 302.371 230.082 302.296C231.585 301.471 234.213 299.548 235.12 299.834C236.028 300.12 233.332 302.25 232.655 302.754C228.768 305.605 229.77 303.773 225.273 307.643C223.316 305.83 221.069 304.258 218.596 302.971L221.711 301.311ZM162.861 356.076C162.63 354.496 162.346 352.79 161.994 351.016L162.576 350.363C165.285 347.42 166.098 342.737 165.84 339.062C167.29 344.432 168.441 349.71 169.321 354.954L162.861 356.076ZM142.72 316.872C139.158 314.582 133.429 310.631 130.097 307.929L135.514 305.639C140.489 309.567 144.748 314.097 148.151 319.081C153.355 327.163 157.216 335.813 159.624 344.787L140.309 321.692L142.828 317.272C142.862 317.204 142.869 317.129 142.85 317.057C142.83 316.986 142.785 316.921 142.72 316.872ZM151.876 303.887C151.957 304.013 152.892 305.696 154.314 308.639C154.314 308.765 154.057 311.628 153.935 312.635C152.206 312.056 150.576 311.286 149.086 310.345C149.384 309.349 150.725 304.826 150.82 303.807L151.876 303.887ZM147.068 316.185C147.163 315.979 147.257 315.704 147.366 315.383L148.273 315.784C148.788 316.07 148.585 315.2 149.045 317.719C149.045 318.143 149.181 318.612 149.208 319.127C148.585 318.177 147.813 317.158 147.081 316.185H147.068ZM146.309 315.223C143.751 312.155 140.838 309.309 137.614 306.727L147.813 310.471C147.42 311.261 146.851 313.677 146.323 315.223H146.309ZM156.725 321.933C155.371 318.807 154.328 315.314 153.813 314.398C153.844 314.113 153.844 313.825 153.813 313.54C154.009 313.601 154.214 313.64 154.423 313.654C154.553 313.655 154.68 313.617 154.78 313.545C154.879 313.474 154.945 313.374 154.964 313.265C155.073 312.887 155.249 310.975 155.276 310.551C159.216 318.961 162.505 327.578 165.123 336.348C157.47 322.585 158.648 326.57 156.739 321.933H156.725ZM167.926 343.791C164.838 331.276 159.407 315.669 153.231 304.105C155.499 304.106 157.763 304.259 160.003 304.563C161.154 313.265 160.192 312.967 160.964 313.311C161.737 313.654 166.382 315.234 167.073 315.475C167.005 316.356 167.981 341.569 167.94 343.791H167.926ZM152.337 283.712C153.043 285.015 153.292 286.462 153.055 287.88C152.944 288.241 152.718 288.569 152.4 288.828C152.082 289.087 151.686 289.266 151.255 289.345C150.824 289.425 150.375 289.402 149.959 289.278C149.542 289.155 149.175 288.937 148.896 288.647C148.25 287.497 147.764 286.286 147.447 285.041C147.813 284.64 151.714 283.838 152.337 283.712ZM133.7 295.162C133.205 294.972 132.698 294.804 132.183 294.659C131.836 294.538 131.527 294.353 131.279 294.116C131.031 293.879 130.85 293.597 130.751 293.292C130.652 292.987 130.636 292.667 130.706 292.356C130.776 292.045 130.929 291.752 131.153 291.498C132.006 290.892 132.778 290.926 133.483 291.83C133.93 292.529 133.916 292.586 134.119 292.655C134.178 292.677 134.241 292.688 134.304 292.687C134.368 292.686 134.431 292.674 134.489 292.652C134.546 292.629 134.598 292.596 134.639 292.555C134.681 292.514 134.711 292.466 134.729 292.414C134.93 291.698 134.962 290.955 134.824 290.227C134.661 289.437 134.634 285.934 134.661 285.819C135.057 285.996 135.501 286.079 135.948 286.06C138.399 285.98 138.887 284.915 139.862 284.044C140.986 284.136 141.217 284.594 142.49 284.044C143.086 283.758 143.633 283.403 144.115 282.991C144.504 283.126 144.88 283.287 145.239 283.472C146.051 283.802 146.967 283.903 147.852 283.761C148.736 283.619 149.544 283.241 150.156 282.682C150.305 282.922 150.44 283.163 150.562 283.415C149.318 283.741 148.146 284.24 147.095 284.892C146.865 285.132 147.203 286.438 147.285 286.747C146.15 286.867 145.052 287.166 144.047 287.628C143.844 287.033 143.397 285.922 142.693 285.613C142.481 285.558 142.255 285.558 142.043 285.613C140.824 285.773 136.449 286.884 135.921 287.491C135.46 287.915 136.774 291.189 137.18 291.727C138.738 293.766 143.303 293.17 144.156 290.789C144.367 289.989 144.367 289.16 144.156 288.361C144.549 288.361 145.727 288.006 145.862 287.972C146.797 289.747 147.068 289.85 148.151 291.762C148.002 291.865 147.759 292.037 147.555 292.151C146.594 292.689 146.391 292.598 146.445 292.827C146.461 292.872 146.495 292.911 146.543 292.936C146.59 292.962 146.647 292.972 146.702 292.964C147.271 292.895 147.826 292.765 148.355 292.575C148.671 292.475 148.932 292.279 149.086 292.025C149.465 291.304 147.366 288.59 146.54 287.777C146.702 287.777 147.081 287.548 147.366 287.422C147.745 288.705 148.002 289.712 149.465 290.216C149.888 290.351 150.339 290.412 150.79 290.397C151.242 290.381 151.685 290.288 152.093 290.124C152.31 292.14 152.269 295.414 151.131 297.201C150.549 298.128 149.113 298.483 148.192 299.25C147.921 299.468 148.097 299.777 148.192 300.109C149.696 303.647 149.723 303.635 149.641 304.093C149.243 305.994 148.686 307.869 147.975 309.704C147.637 309.578 143.831 307.872 136.381 305.422C136.151 304.128 134.919 297.223 134.526 295.952C134.553 295.506 134.485 295.403 133.7 295.105V295.162ZM143.181 290.491C142.747 291.739 140.702 292.277 139.239 291.934C137.776 291.59 137.682 290.96 136.991 289.472C136.667 288.903 136.443 288.298 136.327 287.674C136.774 287.262 141.664 286.415 142.273 286.334C143.128 287.571 143.449 289.02 143.181 290.434V290.491ZM90.1812 359.237C89.6665 359.66 90.3573 361.046 90.4657 362.248C90.4657 362.351 90.4657 362.798 90.3844 362.832C89.6394 363.038 88.9487 362.088 88.5288 361.515C88.1089 360.943 87.689 360.164 87.0254 360.37C85.6709 360.908 82.5286 364.435 81.2961 364.801C80.673 363.794 84.2352 360.92 84.3571 360.759C84.4094 360.686 84.4368 360.602 84.4363 360.516C84.4358 360.43 84.4075 360.346 84.3544 360.273C84.3014 360.199 84.2256 360.14 84.1353 360.101C84.045 360.061 83.9437 360.044 83.8424 360.05C83.5986 360.05 83.4361 360.233 83.0568 360.519C81.9033 361.471 80.583 362.266 79.1425 362.878C80.4486 361.611 81.8463 360.414 83.3277 359.294C83.4009 359.23 83.4524 359.151 83.4767 359.065C83.4767 359.065 83.1923 358.458 82.637 358.698C81.8514 359.065 78.0319 360.931 76.8264 361.412C76.6639 361.321 76.7587 361.183 76.8264 361.046C78.7362 359.065 82.935 356.66 85.5084 355.138C85.8104 354.875 86.0618 354.573 86.2533 354.244C88.0356 355.646 89.9369 356.936 91.942 358.103C91.3243 358.445 90.7359 358.824 90.1812 359.237ZM121.699 369.645C121.401 369.484 121.184 369.336 121.144 369.129C120.399 364.458 124.543 337.985 124.476 336.943C124.476 336.882 124.461 336.822 124.433 336.766C124.405 336.709 124.364 336.658 124.312 336.616C124.261 336.573 124.199 336.539 124.132 336.517C124.065 336.495 123.993 336.484 123.92 336.485C123.23 336.485 124.449 336.485 107.193 350.454C106.055 351.359 97.3598 358.389 95.9105 358.859C93.9195 358.733 86.4294 353.683 85.2104 352.092C87.5671 348.061 116.146 314.902 126.033 309.83C126.792 309.441 128.092 308.834 129.514 308.193C130.006 308.585 130.536 308.941 131.099 309.257C134.241 311.776 138.616 314.914 141.935 317.272L139.348 321.612C139.308 321.669 139.288 321.735 139.288 321.801C139.288 321.867 139.308 321.932 139.348 321.99C160.355 347.466 160.043 347.18 160.179 347.18C161.526 353.067 162.363 359.029 162.685 365.019C162.685 366.633 162.685 366.496 162.766 366.381C162.847 366.267 162.766 366.462 162.766 366.462C159.488 369.484 127.049 372.301 121.699 369.645ZM196.573 331.711C190.437 332.432 183.502 331.356 182.162 331.31C181.416 328.258 179.931 325.369 177.8 322.826C177.768 322.789 177.72 322.763 177.666 322.755C177.612 322.746 177.557 322.755 177.511 322.78C177.465 322.804 177.431 322.843 177.417 322.887C177.403 322.932 177.409 322.979 177.435 323.02C178.22 324.371 180.848 330.199 181.498 331.619C181.295 332.169 187.62 354.279 185.832 357.256C184.234 359.947 174.929 363.336 171.57 364.309C170.906 357.935 169.82 351.597 168.319 345.325C168.78 342.027 168.184 322.425 168.008 315.177C168.002 315.093 167.969 315.012 167.912 314.943C167.854 314.874 167.775 314.82 167.683 314.788L161.601 312.624C161.573 309.903 161.37 307.185 160.992 304.483C176.175 306.704 193.864 314.043 195.34 314.055C197.48 314.055 213.381 303.75 216.673 303.338C218.136 303.143 224.42 307.78 225.152 309.063C218.732 316.643 207.449 326.604 202.221 330.051C200.537 331.003 198.592 331.574 196.573 331.711Z" fill="black"/>
<path d="M141.786 288.201C141.769 288.126 141.735 288.054 141.685 287.99C141.636 287.926 141.572 287.871 141.497 287.828C141.422 287.785 141.338 287.755 141.249 287.739C141.161 287.724 141.069 287.723 140.98 287.737C140.891 287.751 140.807 287.78 140.731 287.822C140.655 287.864 140.59 287.918 140.539 287.982C140.488 288.045 140.452 288.116 140.434 288.191C140.416 288.266 140.415 288.343 140.432 288.418C140.703 289.563 140.757 289.827 141.353 289.827C141.465 289.827 141.576 289.804 141.676 289.759C141.775 289.714 141.859 289.648 141.921 289.569C141.983 289.489 142.02 289.398 142.03 289.303C142.039 289.208 142.021 289.113 141.976 289.025C141.935 288.842 141.813 288.304 141.786 288.201ZM145.931 295.781C146.811 295.998 147.651 295.643 147.624 295.46C147.597 295.277 147.624 295.369 146.432 294.991C145.633 294.739 144.752 293.846 144.441 293.983C144.129 294.121 144.603 294.853 144.712 294.991C145.002 295.362 145.431 295.641 145.931 295.781ZM170.704 284.903C168.929 291.189 167.629 296.525 167.412 297.59C167.268 298.053 167.241 298.537 167.331 299.01C168.049 300.304 177.327 302.857 178.505 302.353C179.684 301.849 182.745 296.021 186.307 290.01C188.489 290.069 190.673 289.935 192.822 289.609C195.085 289.258 197.287 288.67 199.377 287.857C203.955 286.071 208.967 278.423 209.644 274.575C210.152 270.398 209.105 266.192 206.651 262.541C195.287 245.882 161.954 254.847 164.663 273.35C165.436 277.584 167.52 281.57 170.704 284.903ZM178.966 298.54C178.966 298.723 178.722 298.701 177.611 298.54C175.34 298.299 173.14 297.705 171.123 296.788C170.175 296.353 169.918 296.262 170.013 296.067C170.108 295.872 170.311 295.941 171.774 296.285C171.909 296.285 176.108 297.43 177.313 297.785C178.871 298.38 178.966 298.38 178.966 298.54ZM178.722 279.911C180.168 279.974 181.61 279.722 182.907 279.178C184.113 279.672 185.418 279.971 186.754 280.06C184.478 283.644 179.86 290.949 178.37 294.842L172.627 293.502C173.981 290.686 176.975 284.09 178.695 279.911H178.722ZM178.248 278.961C177.237 278.832 176.304 278.426 175.592 277.805C174.88 277.185 174.428 276.384 174.306 275.526C173.927 273.236 175.661 270.671 178.275 271.278C179.914 271.656 180.117 272.755 179.833 274.14C179.589 275.148 178.708 277.678 178.221 278.915L178.248 278.961ZM181.932 276.213C182.077 275.463 182.409 274.749 182.907 274.117C183.144 273.773 183.491 273.492 183.907 273.306C184.324 273.119 184.794 273.036 185.264 273.064C186.266 273.316 186.7 274.919 185.873 275.926C185.079 276.817 184.091 277.571 182.961 278.148C182.573 277.955 182.263 277.666 182.074 277.32C181.885 276.974 181.826 276.588 181.905 276.213H181.932ZM169.485 261.66C175.552 255.488 186.97 253.038 195.219 255.58C199.7 256.88 203.469 259.513 205.824 262.988C208.16 266.461 209.158 270.463 208.682 274.438C208.059 277.999 203.264 285.396 199.052 287.033C195.201 288.518 190.999 289.239 186.767 289.14C186.307 289.14 185.819 289.14 185.643 289.415C184.844 290.789 183.381 293.445 181.945 295.941C180.954 295.536 179.926 295.199 178.871 294.933C180.442 291.132 185.399 283.667 187.756 280.048C189.798 280.196 191.851 279.897 193.716 279.178C194.219 278.954 194.637 278.613 194.92 278.195C195.203 277.777 195.338 277.3 195.311 276.819C195.284 276.338 195.096 275.874 194.767 275.48C194.439 275.087 193.985 274.781 193.458 274.598C191.359 273.728 189.476 275.812 188.379 277.564C188.081 278.022 187.742 278.56 187.363 279.167C186.268 279.106 185.187 278.917 184.153 278.606C185.183 277.994 186.097 277.252 186.862 276.407C187.291 275.86 187.508 275.213 187.484 274.557C187.46 273.901 187.195 273.267 186.727 272.743C186.359 272.382 185.848 272.147 185.289 272.081C184.73 272.016 184.163 272.125 183.693 272.388C182.744 272.881 181.984 273.595 181.503 274.444C181.023 275.293 180.843 276.241 180.984 277.174C181.131 277.701 181.467 278.177 181.945 278.537C181.057 278.848 180.103 279.004 179.142 278.995C179.684 277.644 180.564 275.205 180.794 274.209C180.939 273.641 180.971 273.057 180.889 272.48C180.784 271.985 180.512 271.526 180.106 271.158C179.7 270.791 179.177 270.53 178.6 270.408C175.309 269.618 172.884 272.698 173.358 275.572C173.492 276.601 174.015 277.567 174.849 278.326C175.684 279.085 176.785 279.597 177.99 279.785C176.257 283.907 173.548 290.56 172.193 293.399L169.214 292.747C171.123 284.64 171.354 284.835 171.083 284.732C168.005 281.414 166.036 277.461 165.381 273.281C165.061 271.209 165.262 269.104 165.969 267.101C166.676 265.099 167.874 263.245 169.485 261.66ZM188.284 279.236C189.232 277.781 191.129 274.598 192.971 275.377C193.339 275.502 193.66 275.711 193.899 275.979C194.137 276.247 194.285 276.566 194.325 276.9C194.298 278.915 190.587 279.27 188.23 279.236H188.284ZM240.132 284.285C241.765 283.473 243.692 283.196 245.55 283.506C247.591 283.537 249.54 284.227 250.998 285.434C252.457 286.641 253.313 288.274 253.392 289.999C252.165 289.397 250.73 289.17 249.329 289.357C245.929 289.609 241.487 291.166 242.083 293.937C242.57 296.227 246.146 295.918 248.855 295.3C251.564 294.682 253.717 293.559 254.273 291.35C257.564 293.376 258.336 296.926 258.472 300.395C258.472 300.444 258.494 300.49 258.535 300.525C258.576 300.559 258.631 300.578 258.688 300.578C258.746 300.578 258.801 300.559 258.842 300.525C258.882 300.49 258.905 300.444 258.905 300.395C259 296.514 258.174 292.712 254.422 290.502C254.46 289.508 254.26 288.518 253.833 287.591C253.405 286.664 252.76 285.821 251.935 285.111C251.111 284.401 250.125 283.84 249.037 283.462C247.949 283.084 246.781 282.896 245.604 282.911C243.724 282.679 241.807 283.011 240.187 283.85C239.685 284.056 239.916 284.365 240.132 284.285ZM252.485 292.495C250.954 294.189 246.62 295.071 244.616 294.785C243.871 294.682 243.261 294.418 243.099 293.766C242.611 291.476 247.284 290.228 250.074 290.147C251.21 290.074 252.343 290.319 253.298 290.846C253.195 291.444 252.916 292.012 252.485 292.495ZM233.929 270.9C235.378 269.389 234.403 266.755 230.353 266.744C228.782 266.744 228.024 268.095 228.132 269.389C228.376 272.469 232.48 272.377 233.929 270.9ZM229.08 269.331C229.08 268.576 229.5 267.591 230.435 267.602C232.615 267.602 233.618 268.461 233.618 269.411C233.563 271.575 228.904 272.698 229.08 269.331ZM228.525 399.14C216.619 395.121 211.093 414.574 201.368 431.291C201.307 431.994 201.334 432.7 201.449 433.398C201.449 435.15 201.68 446.749 202.885 448.066C203.21 448.592 204.578 448.066 205.215 447.734C210.621 444.904 215.717 441.67 220.439 438.07C220.479 438.031 220.509 437.985 220.528 437.936C220.547 437.887 220.553 437.835 220.547 437.784C223.066 434.749 232.507 418.948 234.796 411.025C236.394 405.414 234.809 401.235 228.525 399.14ZM232.778 413.681C226.404 412.991 220.242 411.289 214.615 408.666C217.784 403.594 221.698 397.812 228.159 399.987C235.351 402.403 235.202 407.407 232.778 413.647V413.681ZM210.24 443.451C209.824 443.157 209.369 442.903 208.885 442.696C207.055 441.909 204.94 441.737 202.966 442.215C202.831 440.852 202.059 431.99 202.059 431.91C212.204 435.047 209.075 433.685 219.125 437.91C218.068 438.757 214.1 441.104 210.24 443.428V443.451ZM217.229 410.315C218.55 410.925 219.906 411.479 221.292 411.975C218.188 416.098 215.444 420.407 213.084 424.868C210.809 428.887 210.89 428.864 208.574 433.249C207.219 432.883 205.865 432.54 204.51 432.196C205.973 429.734 216.375 411.735 217.229 410.292V410.315ZM209.102 433.364C213.504 426.689 217.987 418.387 221.834 412.124C223.188 412.605 224.543 412.994 225.897 413.338C225.179 414.483 223.08 417.529 222.525 418.41C221.969 419.292 216.403 428.566 216.01 429.276C215.387 430.421 213.68 433.616 213.152 434.635C211.77 434.12 210.443 433.73 209.048 433.341L209.102 433.364ZM213.639 434.784C214.466 433.513 217.865 428.177 218.285 427.49C218.922 426.425 226.019 414.162 226.412 413.452C227.658 413.75 228.972 414.002 229.812 414.139C227.333 419.864 220.195 430.891 217.622 436.329C215.278 435.402 214.75 435.173 213.585 434.761L213.639 434.784ZM214.466 408.998L216.89 410.143C212.004 417.177 207.748 424.51 204.158 432.082L202.127 431.555C209.996 417.38 210.362 415.525 214.411 408.975L214.466 408.998ZM220.046 437.326L218.001 436.501C220.209 432.837 227.116 423.437 230.272 414.22C231.031 414.334 231.775 414.437 232.493 414.517C229.013 422.368 224.834 429.985 219.992 437.303L220.046 437.326ZM177.611 444.757C178.151 444.379 178.537 443.867 178.714 443.294C178.892 442.721 178.852 442.115 178.6 441.562C178.485 440.764 178.052 440.023 177.373 439.461C176.693 438.899 175.808 438.549 174.862 438.469C173.916 438.389 172.966 438.584 172.168 439.021C171.371 439.459 170.773 440.112 170.473 440.875C168.74 439.925 166.857 438.917 165.056 437.955C166.41 436.433 170.392 437.108 170.798 438.356C170.807 438.405 170.839 438.448 170.886 438.477C170.933 438.506 170.991 438.518 171.049 438.511C171.106 438.503 171.158 438.477 171.192 438.437C171.227 438.397 171.241 438.347 171.232 438.299C171.029 436.307 166.126 435.139 164.148 437.486C162.401 436.581 160.234 435.482 158.419 434.646C159.976 433.501 163.457 434.143 163.837 435.333C163.854 435.374 163.889 435.408 163.934 435.429C163.978 435.451 164.031 435.458 164.081 435.45C164.131 435.441 164.177 435.418 164.209 435.384C164.241 435.35 164.258 435.308 164.256 435.265C164.08 433.41 159.543 432.162 157.484 434.2C156.622 433.791 155.714 433.454 154.775 433.192C154.604 433.132 154.415 433.115 154.233 433.144C154.05 433.172 153.881 433.245 153.746 433.352C150.319 436.959 138.766 446.325 133.429 447.413C133.295 447.43 133.169 447.477 133.063 447.548C132.957 447.62 132.875 447.714 132.825 447.821C132.776 447.927 132.761 448.043 132.781 448.157C132.801 448.27 132.857 448.377 132.942 448.466C134.114 449.472 135.456 450.325 136.924 450.997C135.569 452.142 134.513 453.172 133.727 453.917C133.321 454.283 133.104 461.29 133.456 462.836C133.509 462.988 133.624 463.118 133.781 463.203C135.488 464.187 157.471 472.225 159.719 471.149C161.222 470.428 179.169 454.638 179.453 454.157C179.887 453.401 179.738 448.363 179.711 446.348C179.602 445.741 178.261 445.089 177.611 444.757ZM134.269 459.882V457.329C139.89 459.619 152.757 464.29 157.633 465.596C158.879 465.939 158.988 465.893 159.638 465.596C163.362 463.58 176.514 451.054 178.925 449.142V451.558C171.611 457.752 159.191 468.607 158.961 467.989C157.62 467.92 135.434 460.34 134.269 459.882ZM177.273 440.898C177.76 441.592 178.021 442.382 178.031 443.188C178.026 443.445 177.952 443.697 177.813 443.925C177.675 444.154 177.476 444.352 177.232 444.505C176.094 443.864 173.941 442.673 171.394 441.276C172.789 438.952 175.891 438.917 177.218 440.898H177.273ZM133.93 448.226C139.7 446.783 150.658 437.852 154.342 433.982C155.229 434.191 156.083 434.487 156.888 434.864C155.534 436.994 156.983 439.329 157.498 438.997C157.782 438.814 157.267 438.745 157.186 437.623C157.152 436.804 157.371 435.991 157.823 435.265C159.692 436.089 161.886 437.165 163.742 438.07C162.604 440.211 163.972 442.329 164.446 442.02C164.92 441.711 164.229 441.78 164.148 440.658C164.115 439.922 164.282 439.189 164.636 438.516C166.545 439.467 168.496 440.451 170.284 441.379C170.008 441.949 169.899 442.568 169.965 443.181C170.031 443.795 170.27 444.386 170.663 444.906C170.681 444.925 170.703 444.941 170.728 444.954C170.753 444.966 170.781 444.974 170.81 444.977C170.839 444.98 170.869 444.979 170.897 444.972C170.925 444.966 170.951 444.955 170.974 444.94C170.998 444.925 171.017 444.906 171.032 444.885C171.046 444.863 171.056 444.84 171.059 444.815C171.063 444.791 171.061 444.766 171.054 444.742C171.046 444.718 171.033 444.696 171.015 444.677C170.772 444.222 170.651 443.727 170.663 443.227C170.675 442.728 170.818 442.238 171.083 441.791C174.239 443.417 176.785 444.78 177.571 445.226C177.422 445.341 163.295 455.966 158.486 459.126C155.331 458.428 138.766 451.478 133.93 448.226ZM134.445 454.604C140.581 456.894 154.518 462.206 157.728 462.722C158.283 462.813 158.5 462.848 159.556 462.138C164.067 459.081 178.735 446.108 178.871 446.245C178.877 446.279 178.877 446.314 178.871 446.348V448.638C175.85 450.688 159.055 465.596 158.784 464.886C157.43 464.886 135.42 457.294 134.296 456.871C134.269 456.39 134.391 455.107 134.445 454.604ZM159.11 470.382C157.755 471.034 137.127 463.947 134.364 462.504C134.26 461.775 134.21 461.04 134.215 460.306C140.147 462.779 157.403 468.939 158.988 468.882C161.304 468.779 177.679 453.195 178.844 452.108C178.857 452.692 178.789 453.277 178.641 453.848C178.41 454.226 160.003 469.958 159.11 470.382ZM46.8938 405.838C46.9886 407.063 47.0564 408.128 47.0564 409.124C47.0564 409.276 47.1277 409.422 47.2547 409.529C47.3817 409.636 47.554 409.697 47.7336 409.697C47.9132 409.697 48.0854 409.636 48.2124 409.529C48.3394 409.422 48.4108 409.276 48.4108 409.124C48.4108 408.059 48.3431 407.006 48.2483 405.758C48.2357 405.606 48.1523 405.465 48.0164 405.365C47.8805 405.265 47.7032 405.215 47.5236 405.226C47.344 405.236 47.1768 405.307 47.0587 405.422C46.9405 405.536 46.8812 405.686 46.8938 405.838ZM253.27 382.881C253.182 382.885 253.096 382.904 253.016 382.938C252.937 382.971 252.866 383.017 252.808 383.073C252.75 383.13 252.705 383.196 252.678 383.267C252.65 383.338 252.64 383.413 252.647 383.488C252.729 384.541 252.81 385.675 252.81 386.774C252.81 386.926 252.881 387.071 253.008 387.179C253.135 387.286 253.308 387.346 253.487 387.346C253.667 387.346 253.839 387.286 253.966 387.179C254.093 387.071 254.164 386.926 254.164 386.774C254.164 385.629 254.083 384.484 253.988 383.408C253.983 383.333 253.96 383.26 253.921 383.192C253.882 383.125 253.828 383.065 253.761 383.016C253.694 382.967 253.616 382.93 253.532 382.907C253.448 382.883 253.359 382.875 253.27 382.881ZM43.3858 402.987C43.5654 402.987 43.7377 402.927 43.8647 402.819C43.9917 402.712 44.063 402.566 44.063 402.415C44.063 402.263 43.9917 402.117 43.8647 402.01C43.7377 401.902 43.5654 401.842 43.3858 401.842C41.7469 401.842 40.3789 401.945 39.0245 401.922C38.8436 401.922 38.6699 401.982 38.5408 402.089C38.4116 402.196 38.3373 402.342 38.3337 402.495C38.3337 402.647 38.4051 402.792 38.5321 402.9C38.6591 403.007 38.8313 403.067 39.011 403.067C40.406 403.09 41.9366 403.044 43.3858 402.987ZM249.072 379.492C247.446 379.492 246.078 379.572 244.71 379.583C244.531 379.583 244.359 379.644 244.232 379.751C244.105 379.858 244.033 380.004 244.033 380.156C244.033 380.308 244.105 380.453 244.232 380.561C244.359 380.668 244.531 380.728 244.71 380.728C246.173 380.728 247.69 380.728 249.153 380.637C249.333 380.628 249.501 380.559 249.62 380.445C249.739 380.331 249.8 380.182 249.79 380.03C249.779 379.878 249.697 379.736 249.562 379.635C249.428 379.534 249.251 379.483 249.072 379.492ZM46.5281 395.911C46.6094 396.964 46.6907 398.098 46.6907 399.197C46.6941 399.348 46.7666 399.492 46.8928 399.599C47.0191 399.705 47.1894 399.767 47.3679 399.77C47.5475 399.77 47.7197 399.709 47.8467 399.602C47.9737 399.495 48.0451 399.349 48.0451 399.197C48.0451 398.052 47.9638 396.907 47.8826 395.831C47.87 395.679 47.7866 395.538 47.6507 395.438C47.5148 395.338 47.3375 395.288 47.1579 395.298C46.9783 395.309 46.8111 395.38 46.693 395.494C46.5748 395.609 46.5155 395.759 46.5281 395.911ZM253.799 376.847C253.799 375.702 253.717 374.557 253.623 373.48C253.61 373.329 253.527 373.187 253.391 373.087C253.255 372.988 253.078 372.937 252.898 372.948C252.718 372.959 252.551 373.029 252.433 373.144C252.315 373.259 252.256 373.409 252.268 373.561C252.349 374.614 252.431 375.748 252.431 376.847C252.431 376.999 252.502 377.144 252.629 377.252C252.756 377.359 252.928 377.419 253.108 377.419C253.289 377.419 253.463 377.359 253.592 377.252C253.721 377.145 253.795 377 253.799 376.847ZM56.5239 402.838C56.6129 402.835 56.7003 402.818 56.7811 402.786C56.8619 402.754 56.9346 402.71 56.995 402.654C57.0554 402.599 57.1023 402.534 57.133 402.464C57.1637 402.393 57.1777 402.318 57.1741 402.243C57.1604 402.093 57.0802 401.953 56.9495 401.851C56.8189 401.749 56.6475 401.693 56.4697 401.693C54.8309 401.75 53.4629 401.796 52.0949 401.773C51.9153 401.773 51.743 401.834 51.616 401.941C51.489 402.048 51.4177 402.194 51.4177 402.346C51.4177 402.498 51.489 402.643 51.616 402.751C51.743 402.858 51.9153 402.918 52.0949 402.918C53.5441 402.941 55.0611 402.895 56.5239 402.838ZM262.21 379.343C260.855 379.4 259.352 379.434 257.849 379.434C257.759 379.431 257.67 379.444 257.586 379.47C257.503 379.497 257.426 379.538 257.362 379.59C257.297 379.643 257.246 379.706 257.211 379.775C257.176 379.845 257.158 379.92 257.158 379.995C257.158 380.148 257.229 380.295 257.355 380.404C257.482 380.514 257.654 380.576 257.835 380.579C259.379 380.579 260.625 380.579 262.264 380.488C262.353 380.485 262.44 380.467 262.521 380.436C262.602 380.404 262.675 380.359 262.735 380.304C262.796 380.249 262.842 380.184 262.873 380.113C262.904 380.043 262.918 379.968 262.914 379.892C262.897 379.744 262.816 379.605 262.686 379.504C262.556 379.402 262.387 379.345 262.21 379.343ZM25.3988 368.912C25.5749 369.026 63.7702 364.24 65.4091 363.393C65.4998 363.337 65.5723 363.262 65.6197 363.176C65.667 363.09 65.6878 362.995 65.68 362.901C65.68 361.424 63.391 347.558 62.2939 344.1C62.1584 343.676 62.023 343.252 61.7114 343.104C59.6391 342.05 23.1233 347.867 20.9427 349.058C20.8836 349.087 20.8325 349.127 20.7928 349.174C20.7531 349.222 20.7257 349.275 20.7124 349.332C20.2519 350.718 24.2204 368.225 25.3988 368.912ZM21.5386 349.607C24.1392 348.611 57.2824 343.481 61.0749 343.882C61.9959 345.886 64.461 360.565 64.6235 362.717C62.7408 363.187 25.9135 368.534 25.778 368.557C25.6426 368.58 25.629 368.717 25.3446 367.996C24.1527 364.973 21.4709 352.195 21.5386 349.607Z" fill="#FFF494"/>
<path d="M68.3887 364.412C68.4624 364.296 68.4953 364.165 68.4835 364.034C68.4835 362.214 65.3954 342.004 64.2983 340.39C64.2123 340.271 64.0905 340.173 63.9454 340.107C63.8003 340.04 63.637 340.008 63.4721 340.012C58.9347 339.543 20.6581 345.863 18.1388 347.34C17.7867 347.546 17.8408 348.061 17.8815 348.611C18.0982 351.622 21.9448 371.431 23.2993 371.316C23.4482 371.316 23.3941 371.225 23.0419 371.832C20.929 375.507 16.9198 387.278 17.0011 389.648C17.0011 390.644 17.272 391.938 18.4368 391.869C26.7937 390.999 67.7656 385.503 79.5493 383.453C80.0098 383.373 80.3078 383.018 80.2943 382.434C80.1552 381.461 79.8063 380.518 79.2649 379.652C77.6125 377.03 70.759 366.645 68.3887 364.412ZM23.3805 370.961C22.3241 369.816 18.4368 350.088 18.7348 347.901C21.7146 346.596 59.4765 340.424 63.4314 340.928C64.515 343.447 67.3187 361.641 67.4948 363.828C62.7 365.225 29.5026 369.759 23.3805 370.961ZM23.9765 371.305C25.1142 371.064 63.8648 365.58 67.4135 364.79C69.3503 366.313 78.1001 379.469 78.6689 380.591C70.8944 381.736 24.7756 388.251 17.9898 389.121C18.0846 385.652 22.297 373.526 23.9765 371.305Z" fill="black"/>
<path d="M29.0696 383.179C30.248 383.03 55.251 380.488 64.2852 378.416C64.3409 378.403 64.3885 378.373 64.4178 378.331C64.447 378.289 64.4553 378.239 64.4409 378.192C64.4266 378.145 64.3907 378.105 64.3411 378.08C64.2916 378.055 64.2325 378.048 64.1768 378.061C62.4025 378.37 40.7585 380.809 29.0425 382.824C29.0102 382.819 28.9769 382.82 28.9453 382.828C28.9136 382.835 28.8844 382.849 28.8599 382.867C28.8353 382.886 28.8161 382.909 28.8036 382.935C28.7912 382.96 28.7858 382.988 28.7879 383.016C28.79 383.044 28.7996 383.071 28.8159 383.095C28.8321 383.119 28.8547 383.14 28.8819 383.155C28.909 383.171 28.94 383.181 28.9726 383.185C29.0051 383.189 29.0383 383.187 29.0696 383.179ZM47.3411 303.51C46.8351 304.476 46.4097 305.47 46.0679 306.487C46.0478 306.65 46.1009 306.813 46.2169 306.945C47.5849 308.685 61.6034 322.047 65.2604 323.925C65.7615 324.188 66.3575 324.372 66.7232 323.994C69.3797 321.199 72.8467 319.034 76.7867 317.708C79.9935 316.748 83.3557 316.212 86.7554 316.116C89.4643 315.91 89.9383 315.681 90.9813 314.181C92.2115 312.207 93.8438 310.432 95.8031 308.937C98.3014 307.09 101.074 305.527 104.052 304.288C104.186 304.224 104.29 304.124 104.349 304.003C104.408 303.883 104.418 303.75 104.377 303.624C103.919 302.639 103.313 301.708 102.575 300.853C103.063 300.716 103.605 300.59 103.605 300.178C103.605 299.033 91.7939 284.583 88.5162 281.858C88.1776 281.571 87.69 281.194 87.243 281.216C80.4708 281.537 73.8746 286.941 70.0551 291.659C65.6803 291.521 62.8495 291.189 57.8651 292.964C54.3464 294.227 51.174 296.09 48.5465 298.437C48.1402 298.792 45.3771 301.265 45.3365 301.46C45.2959 301.655 45.3771 301.655 47.3411 303.51ZM101.519 303.189C95.8708 304.002 92.268 307.975 89.6133 312.292C88.4349 314.215 88.5433 314.307 87.2972 314.284C85.1182 314.18 82.9325 314.249 80.7688 314.49C79.1818 314.691 77.6214 315.02 76.1095 315.475C72.6692 316.505 68.7278 319.803 66.6284 322.253C66.5838 322.304 66.5271 322.346 66.462 322.376C66.3969 322.407 66.3249 322.425 66.2508 322.431C66.1766 322.436 66.1019 322.428 66.0316 322.407C65.9613 322.387 65.8969 322.354 65.8428 322.311C61.4408 318.475 53.6528 311.742 49.7384 307.872C49.5488 307.7 49.8739 307.448 50.0635 307.632C52.5963 309.922 59.1383 315.406 66.1543 321.372C68.5246 318.818 72.1816 315.727 75.798 314.65C77.77 314.056 79.822 313.671 81.9065 313.505C83.8586 313.38 85.8191 313.38 87.7712 313.505C88.5704 312.727 92.5253 303.887 101.492 302.903C101.518 302.919 101.54 302.94 101.555 302.964C101.57 302.989 101.579 303.016 101.58 303.043C101.581 303.071 101.575 303.098 101.562 303.123C101.549 303.149 101.53 303.171 101.505 303.189H101.519ZM87.2295 282.144C89.9383 283.747 100.964 297.544 102.399 299.96C99.908 300.627 97.5029 301.506 95.2207 302.582C93.0595 303.498 91.1672 304.81 89.6817 306.422C88.1961 308.035 87.1548 309.907 86.6335 311.902C81.771 305.216 74.9853 297.853 70.475 292.437C70.7459 292.289 78.3578 282.59 87.2295 282.144ZM58.1631 293.594C63.1068 291.911 65.8428 292.3 69.9332 292.449C73.9965 298.311 81.297 306.578 86.1053 311.994C81.6674 311.106 76.9974 311.649 73.0078 313.517C70.6104 314.662 67.6848 317.41 65.8834 319.116C63.2829 317.353 48.2756 303.842 45.8647 301.552C49.5759 298.002 53.0027 295.334 58.1631 293.548V293.594ZM33.3768 322.711C33.042 322.513 32.6463 322.4 32.2375 322.388C31.8288 322.376 31.4247 322.464 31.0742 322.643C30.819 322.739 30.5887 322.877 30.3964 323.048C30.2042 323.22 30.0537 323.421 29.9538 323.642C29.8538 323.863 29.8062 324.098 29.8137 324.334C29.8211 324.57 29.8836 324.803 29.9974 325.018C30.1113 325.234 30.2743 325.429 30.4771 325.591C30.68 325.754 30.9187 325.881 31.1797 325.966C31.4406 326.05 31.7187 326.09 31.9981 326.084C32.2775 326.078 32.5527 326.025 32.8079 325.929C33.2156 325.853 33.5867 325.675 33.8718 325.417C34.1569 325.16 34.3426 324.835 34.4043 324.486C34.466 324.137 34.4007 323.78 34.2172 323.463C34.0337 323.146 33.7406 322.884 33.3768 322.711ZM32.4828 325.001C31.5347 325.253 30.9659 325.001 30.7356 324.612C30.3022 323.799 30.844 322.551 32.2526 322.917C33.2413 323.227 34.0404 324.635 32.4828 325.059V325.001ZM102.25 270.316C102.643 270.992 104.472 270.74 105.271 270.522C105.691 270.408 105.961 270.282 106.002 269.938C106.124 269.079 106.259 261.637 105.799 260.916C105.751 260.84 105.678 260.778 105.589 260.737C105.5 260.696 105.399 260.679 105.298 260.687C103.853 260.683 102.415 260.861 101.031 261.213C100.476 261.5 101.763 269.56 102.25 270.316ZM101.316 261.488C102.567 261.337 103.832 261.287 105.095 261.339C105.176 262.187 104.959 269.526 104.946 269.641C104.373 269.814 103.762 269.876 103.158 269.824C103.063 269.56 102.9 268.85 102.697 267.957C102.1 265.823 101.639 263.664 101.316 261.488ZM32.063 313.047C32.1929 313.104 32.3368 313.133 32.4828 313.133C32.6288 313.133 32.7728 313.104 32.9027 313.047C33.426 312.775 33.841 312.376 34.0946 311.902C34.1291 311.827 34.1397 311.745 34.1254 311.664C34.1112 311.584 34.0726 311.508 34.0134 311.444C33.3632 310.792 26.2659 303.842 25.3991 304.277C24.3348 304.859 23.325 305.51 22.3787 306.223C22.3405 306.252 22.31 306.287 22.289 306.327C22.268 306.366 22.257 306.409 22.2568 306.452C22.2297 307.048 30.1126 312.383 32.063 313.047ZM25.5616 304.574C26.5504 305.181 29.8823 308.662 32.9704 311.742C32.8376 311.919 32.6731 312.077 32.4828 312.212C29.2361 310.455 26.1361 308.511 23.2049 306.395C23.9397 305.743 24.7272 305.134 25.5616 304.574ZM46.8399 279.316C47.1379 274.873 50.199 272.812 53.3954 272.285C52.488 275.102 52.637 278.766 55.9283 279.236C57.4994 279.453 58.2714 278.766 59.4092 277.965C64.2716 274.53 60.3437 271.095 54.8582 271.335C56.9035 266.595 61.6305 262.736 67.9015 262.61C67.959 262.61 68.0141 262.591 68.0548 262.557C68.0954 262.522 68.1183 262.476 68.1183 262.427C68.1183 262.378 68.0954 262.332 68.0548 262.297C68.0141 262.263 67.959 262.244 67.9015 262.244C61.1293 262.129 55.8064 266.251 53.707 271.404C50.0906 271.931 46.5013 274.221 46.4065 279.247C46.4012 279.271 46.4015 279.296 46.4075 279.32C46.4134 279.344 46.4249 279.366 46.4413 279.387C46.4576 279.407 46.4785 279.424 46.5028 279.438C46.527 279.451 46.5541 279.46 46.5826 279.465C46.6111 279.469 46.6403 279.469 46.6686 279.464C46.697 279.459 46.7238 279.449 46.7477 279.435C46.7716 279.421 46.7921 279.404 46.8079 279.383C46.8237 279.363 46.8346 279.34 46.8399 279.316ZM54.5467 272.148C56.5648 272.034 59.5717 272.56 60.3979 274.106C60.872 274.988 60.3979 276.075 58.7184 277.266C58.2624 277.652 57.7423 277.98 57.1743 278.239C55.1427 278.972 52.8943 276.854 54.5467 272.148ZM58.4204 434.085C57.1119 433.789 55.7464 433.717 54.4044 433.873C53.0624 434.03 51.7709 434.412 50.6061 434.996C49.4412 435.581 48.4264 436.357 47.6215 437.278C46.8165 438.199 46.2377 439.247 45.9189 440.36C45.3172 442.672 45.8268 445.092 47.3356 447.087C48.8444 449.082 51.2288 450.488 53.9643 450.997C56.6998 451.506 59.5622 451.075 61.922 449.799C64.2817 448.524 65.9454 446.508 66.5471 444.196C66.8041 443.08 66.7975 441.933 66.5275 440.82C66.2575 439.707 65.7296 438.65 64.9742 437.71C64.2187 436.77 63.2507 435.966 62.1259 435.344C61.0011 434.722 59.7417 434.294 58.4204 434.085ZM62.6057 443.417C62.0622 445.249 60.7612 446.857 58.9378 447.949C57.1145 449.041 54.8891 449.545 52.664 449.371C50.6215 448.696 48.9259 447.435 47.8755 445.807C46.8251 444.18 46.4872 442.292 46.9212 440.475C47.428 438.598 48.7169 436.938 50.5523 435.798C52.3877 434.659 54.647 434.116 56.917 434.269C58.9797 434.989 60.6756 436.301 61.7063 437.975C62.7369 439.648 63.0362 441.576 62.5515 443.417H62.6057Z" fill="#1ABCFE"/>
<path d="M76.4601 437.348C75.281 437.005 74.0173 436.922 72.7896 437.108C72.2807 436.122 71.6545 435.182 70.9205 434.303C71.8009 433.627 74.2118 431.749 73.6294 430.868C71.5566 428.772 69.0957 426.974 66.3424 425.544C65.1928 424.999 63.9268 424.653 62.6177 424.524C61.7509 424.628 59.6921 427.479 59.2316 428.12C58.9336 428.12 57.8772 427.834 57.7959 427.799C57.7959 426.975 57.5115 423.998 56.6311 423.654C55.6466 423.348 54.6243 423.137 53.5836 423.025C52.6219 422.899 43.967 424.238 43.3304 425.223C42.9106 425.887 43.8858 428.395 44.1702 429.093C43.4397 429.433 42.7382 429.816 42.0708 430.238C40.7164 431.051 41.0821 431.017 40.8383 430.925C40.5436 430.806 40.2279 430.729 39.9037 430.696C38.8217 430.16 37.5532 429.957 36.3144 430.124C35.0683 430.467 32.1292 436.123 31.6551 437.577C31.5 437.944 31.458 438.338 31.5332 438.722C31.8583 439.478 34.0254 440.085 34.9329 440.325C34.6823 441.799 34.6823 443.295 34.9329 444.768C33.741 445.043 31.2623 445.661 31.3978 446.692C31.5332 447.722 34.7026 454.523 36.0164 455.062C36.7362 455.402 37.532 455.611 38.353 455.676C39.1741 455.741 40.0021 455.661 40.7841 455.439C41.2245 455.254 41.6498 455.043 42.0573 454.81C42.599 455.153 43.1679 455.462 43.7503 455.76C43.3304 456.642 42.3959 458.611 42.6939 459.504C42.8428 459.974 43.2898 460.123 43.9129 460.317C45.633 460.844 54.8974 462.722 56.306 462.516C56.8342 462.447 57.1187 461.977 57.2812 461.531C57.5822 460.515 57.7592 459.475 57.8094 458.428C58.505 458.37 59.1967 458.282 59.8818 458.165C60.3001 458.787 60.8353 459.348 61.4664 459.825C62.1572 460.237 62.7396 460.031 63.5252 459.607C63.9044 460.019 64.4733 460.592 65.0828 460.649C66.6133 460.798 72.9386 455.76 73.5887 454.73C74.1305 453.871 72.153 452.337 71.2726 451.661C72.225 450.449 72.9727 449.131 73.4939 447.745C74.4708 447.87 75.4594 447.916 76.4466 447.882C76.8936 447.882 77.4083 447.745 77.5979 447.39C78.4241 445.799 78.1803 439.764 77.5979 438.23C77.5166 437.784 76.9071 437.486 76.4601 437.348ZM76.7852 438.402C77.2457 439.89 77.3947 445.512 76.7175 446.966C75.5464 447.064 74.3648 447.018 73.2095 446.829C73.0861 446.811 72.9593 446.833 72.8541 446.89C72.7488 446.948 72.6726 447.036 72.6406 447.138C72.1012 448.686 71.2638 450.149 70.162 451.466C70.0835 451.554 70.0481 451.663 70.0633 451.772C70.0784 451.881 70.1429 451.981 70.2432 452.05C71.1935 452.687 72.001 453.463 72.6271 454.34C71.9498 455.279 66.654 459.378 65.1912 459.722C64.9745 459.722 64.3785 459.035 64.2295 458.852C63.7292 458.216 63.2768 457.554 62.8751 456.871C62.8164 456.771 62.7159 456.694 62.5931 456.653C62.4703 456.613 62.3342 456.613 62.2114 456.653C58.2835 457.901 56.7936 457.168 56.7936 457.993C56.7954 459.227 56.5574 460.453 56.0893 461.622C52.9063 461.33 49.7717 460.738 46.7436 459.859C46.8899 458.637 47.2935 457.446 47.9356 456.344C48.3419 455.577 46.7166 455.794 43.6826 453.184C43.585 453.107 43.4568 453.065 43.3237 453.065C43.1906 453.065 43.0624 453.107 42.9647 453.184C41.6103 454.123 39.8495 455.039 39.4974 454.89C38.8066 454.604 35.6237 448.501 35.434 447.264C36.3974 446.697 37.491 446.307 38.6441 446.119C38.767 446.09 38.8732 446.024 38.943 445.933C39.0127 445.843 39.0412 445.734 39.0233 445.627C38.6914 444.005 38.6914 442.348 39.0233 440.726C39.044 440.626 39.0192 440.524 38.9538 440.439C38.8885 440.354 38.7875 440.293 38.6712 440.268C37.6501 440.042 36.667 439.707 35.7456 439.272C35.4476 439.089 35.4747 439.1 35.5018 438.906C36.3784 436.233 37.7844 433.705 39.6599 431.429C40.3913 431.257 42.3688 432.482 43.046 432.917C43.1168 432.975 43.2115 433.008 43.3101 433.008C43.4087 433.008 43.5035 432.975 43.5742 432.917C44.1966 432.372 44.8667 431.866 45.5788 431.406C47.6376 430.089 48.1929 430.261 48.0168 429.803C47.3942 428.654 47.0444 427.413 46.9874 426.15C47.1974 426.003 47.4356 425.887 47.6918 425.807C48.9562 425.384 50.2554 425.04 51.579 424.776C53.1833 424.398 54.8323 424.172 56.4956 424.101C56.7801 424.204 57.0374 425.246 57.1051 425.566C57.6063 427.856 57.2677 428.326 57.6605 428.36C61.5206 428.681 62.3062 429.585 62.5771 429.185C63.3282 428.074 64.2035 427.028 65.1912 426.059C65.4756 425.818 65.4621 425.704 66.3154 426.116C68.8646 427.524 71.1477 429.25 73.0876 431.234C73.2907 431.532 71.53 433.112 70.2432 434.039C69.7963 434.371 70.4329 434.52 71.5977 436.398C72.7625 438.276 72.4916 438.803 73.1147 438.688C74.3157 438.445 75.5518 438.349 76.7852 438.402ZM264.768 342.726C261.929 341.745 258.952 341.079 255.91 340.745C253.689 340.447 251.075 340.149 248.867 339.909C250.994 337.367 257.292 330.932 258.348 329.364C258.646 328.94 258.078 328.344 257.658 327.99C255.301 325.86 250.75 325.058 247.256 324.6C245.251 324.326 236.881 323.455 235.458 324.028C233.752 324.715 221.128 340.745 220.749 343.184C220.749 343.596 220.912 343.756 221.386 343.905C223.377 344.523 232.357 345.485 234.361 345.886C231.652 349.893 219.611 363.439 218.433 365.351C218.149 365.832 218.325 366.118 218.663 366.21C219.882 366.619 221.136 366.948 222.415 367.194C222.903 367.32 223.973 366.759 225.53 365.958C232.519 362.408 262.507 345.668 264.809 343.504C264.873 343.453 264.923 343.392 264.955 343.323C264.988 343.255 265.003 343.181 264.999 343.107C264.995 343.033 264.973 342.961 264.933 342.895C264.893 342.829 264.837 342.772 264.768 342.726ZM235.661 356.466C224.149 362.889 220.261 364.767 220.126 364.847C221.982 362.454 233.508 349.103 235.485 345.909C235.52 345.847 235.538 345.78 235.537 345.711C235.537 345.643 235.518 345.576 235.483 345.514C235.448 345.453 235.398 345.399 235.335 345.356C235.272 345.314 235.198 345.283 235.12 345.268C233.765 344.855 223.905 343.962 221.575 343.264C221.873 341.134 234.172 325.035 235.661 324.394C237.151 323.753 251.603 325.207 254.312 326.845C252.89 329.192 245.034 337.413 243.761 339.325C243.504 339.714 243.422 340.092 243.924 340.195C244.425 340.298 257.157 341.558 259.933 342.325C256.547 344.718 239.454 354.313 235.661 356.42V356.466ZM148.774 286.46C148.774 286.563 148.855 286.689 149.058 287.353C149.112 287.498 149.229 287.619 149.385 287.691C149.542 287.764 149.726 287.782 149.898 287.743C150.071 287.7 150.216 287.602 150.302 287.468C150.389 287.335 150.409 287.179 150.359 287.033C150.223 286.586 150.101 286.208 150.02 286.025C149.941 285.9 149.81 285.803 149.651 285.755C149.493 285.707 149.319 285.71 149.163 285.764C149.008 285.819 148.882 285.92 148.81 286.049C148.738 286.177 148.725 286.324 148.774 286.46Z" fill="#FB8500"/>
<ellipse cx="35" cy="28.5" rx="30" ry="28.5" fill="#27AAD8"/>
<path d="M92.1969 7.23252C117.378 -6.15266 120.479 18.0232 120.479 18.0232C80.26 18.6074 79.9785 11.7662 92.1969 7.23252Z" fill="#F69A28"/>
<path d="M39.5705 20.4913V23.7793H35.1065V37.3393H31.0025V23.7793H26.5385V20.4913H39.5705ZM45.3262 37.5313C44.0142 37.5313 42.8302 37.2513 41.7742 36.6913C40.7342 36.1313 39.9102 35.3313 39.3022 34.2913C38.7102 33.2513 38.4142 32.0353 38.4142 30.6433C38.4142 29.2673 38.7182 28.0593 39.3262 27.0193C39.9342 25.9633 40.7662 25.1553 41.8222 24.5953C42.8782 24.0353 44.0622 23.7553 45.3742 23.7553C46.6862 23.7553 47.8702 24.0353 48.9262 24.5953C49.9822 25.1553 50.8142 25.9633 51.4222 27.0193C52.0302 28.0593 52.3342 29.2673 52.3342 30.6433C52.3342 32.0193 52.0222 33.2353 51.3982 34.2913C50.7902 35.3313 49.9502 36.1313 48.8782 36.6913C47.8222 37.2513 46.6382 37.5313 45.3262 37.5313ZM45.3262 33.9793C46.1102 33.9793 46.7742 33.6913 47.3182 33.1153C47.8782 32.5393 48.1582 31.7153 48.1582 30.6433C48.1582 29.5713 47.8862 28.7473 47.3422 28.1713C46.8142 27.5953 46.1582 27.3073 45.3742 27.3073C44.5742 27.3073 43.9102 27.5953 43.3822 28.1713C42.8542 28.7313 42.5902 29.5553 42.5902 30.6433C42.5902 31.7153 42.8462 32.5393 43.3582 33.1153C43.8862 33.6913 44.5422 33.9793 45.3262 33.9793ZM56.2154 25.8433C56.6154 25.2193 57.1674 24.7153 57.8714 24.3313C58.5754 23.9473 59.3994 23.7553 60.3434 23.7553C61.4474 23.7553 62.4474 24.0353 63.3434 24.5953C64.2394 25.1553 64.9434 25.9553 65.4554 26.9953C65.9834 28.0353 66.2474 29.2433 66.2474 30.6193C66.2474 31.9953 65.9834 33.2113 65.4554 34.2673C64.9434 35.3073 64.2394 36.1153 63.3434 36.6913C62.4474 37.2513 61.4474 37.5313 60.3434 37.5313C59.4154 37.5313 58.5914 37.3393 57.8714 36.9553C57.1674 36.5713 56.6154 36.0753 56.2154 35.4673V43.7233H52.1114V23.9473H56.2154V25.8433ZM62.0714 30.6193C62.0714 29.5953 61.7834 28.7953 61.2074 28.2193C60.6474 27.6273 59.9514 27.3313 59.1194 27.3313C58.3034 27.3313 57.6074 27.6273 57.0314 28.2193C56.4714 28.8113 56.1914 29.6193 56.1914 30.6433C56.1914 31.6673 56.4714 32.4753 57.0314 33.0673C57.6074 33.6593 58.3034 33.9553 59.1194 33.9553C59.9354 33.9553 60.6314 33.6593 61.2074 33.0673C61.7834 32.4593 62.0714 31.6433 62.0714 30.6193Z" fill="#F8F8FD"/>
<path d="M65.6885 34.2193V30.9073L73.2725 20.0593H77.8565V30.6673H79.8245V34.2193H77.8565V37.3393H73.7525V34.2193H65.6885ZM74.0405 24.5713L70.0085 30.6673H74.0405V24.5713ZM90.4027 20.4913V31.9633C90.4027 33.7393 89.8987 35.1073 88.8907 36.0673C87.8987 37.0273 86.5547 37.5073 84.8587 37.5073C83.0827 37.5073 81.6587 37.0033 80.5867 35.9953C79.5147 34.9873 78.9787 33.5553 78.9787 31.6993H83.0587C83.0587 32.4033 83.2027 32.9393 83.4907 33.3073C83.7787 33.6593 84.1947 33.8353 84.7387 33.8353C85.2347 33.8353 85.6187 33.6753 85.8907 33.3553C86.1627 33.0353 86.2987 32.5713 86.2987 31.9633V20.4913H90.4027ZM97.4137 37.5313C96.1017 37.5313 94.9177 37.2513 93.8617 36.6913C92.8217 36.1313 91.9977 35.3313 91.3897 34.2913C90.7977 33.2513 90.5017 32.0353 90.5017 30.6433C90.5017 29.2673 90.8057 28.0593 91.4137 27.0193C92.0217 25.9633 92.8537 25.1553 93.9097 24.5953C94.9657 24.0353 96.1497 23.7553 97.4617 23.7553C98.7737 23.7553 99.9577 24.0353 101.014 24.5953C102.07 25.1553 102.902 25.9633 103.51 27.0193C104.118 28.0593 104.422 29.2673 104.422 30.6433C104.422 32.0193 104.11 33.2353 103.486 34.2913C102.878 35.3313 102.038 36.1313 100.966 36.6913C99.9097 37.2513 98.7257 37.5313 97.4137 37.5313ZM97.4137 33.9793C98.1977 33.9793 98.8617 33.6913 99.4057 33.1153C99.9657 32.5393 100.246 31.7153 100.246 30.6433C100.246 29.5713 99.9737 28.7473 99.4297 28.1713C98.9017 27.5953 98.2457 27.3073 97.4617 27.3073C96.6617 27.3073 95.9977 27.5953 95.4697 28.1713C94.9417 28.7313 94.6777 29.5553 94.6777 30.6433C94.6777 31.7153 94.9337 32.5393 95.4457 33.1153C95.9737 33.6913 96.6297 33.9793 97.4137 33.9793ZM108.303 25.8433C108.687 25.2193 109.239 24.7153 109.959 24.3313C110.679 23.9473 111.503 23.7553 112.431 23.7553C113.535 23.7553 114.535 24.0353 115.431 24.5953C116.327 25.1553 117.031 25.9553 117.543 26.9953C118.071 28.0353 118.335 29.2433 118.335 30.6193C118.335 31.9953 118.071 33.2113 117.543 34.2673C117.031 35.3073 116.327 36.1153 115.431 36.6913C114.535 37.2513 113.535 37.5313 112.431 37.5313C111.487 37.5313 110.663 37.3473 109.959 36.9793C109.255 36.5953 108.703 36.0913 108.303 35.4673V37.3393H104.199V19.5793H108.303V25.8433ZM114.159 30.6193C114.159 29.5953 113.871 28.7953 113.295 28.2193C112.735 27.6273 112.039 27.3313 111.207 27.3313C110.391 27.3313 109.695 27.6273 109.119 28.2193C108.559 28.8113 108.279 29.6193 108.279 30.6433C108.279 31.6673 108.559 32.4753 109.119 33.0673C109.695 33.6593 110.391 33.9553 111.207 33.9553C112.023 33.9553 112.719 33.6593 113.295 33.0673C113.871 32.4593 114.159 31.6433 114.159 30.6193Z" fill="#26A4FF"/>
</svg>
