<svg width="283" height="477" viewBox="0 0 283 477" fill="none" xmlns="http://www.w3.org/2000/svg">
<ellipse cx="28.5" cy="128.5" rx="13.5" ry="14.5" fill="#4E80C5"/>
<circle cx="121" cy="194" r="10" fill="#D8E6F4"/>
<circle cx="131" cy="109" r="10" fill="#4E80C5"/>
<ellipse cx="214" cy="155.5" rx="8" ry="7.5" fill="#D8E6F4"/>
<g clip-path="url(#clip0_0_1)">
<path d="M189.297 277.221C188.533 276.703 186.256 276.811 185.858 277.667C186.395 277.496 186.965 277.394 187.546 277.365C188.124 277.287 188.71 277.239 189.297 277.221ZM194.694 277.872C195.586 278.078 196.437 278.374 197.225 278.751C197.16 278.555 197.038 278.372 196.867 278.216C196.697 278.06 196.482 277.935 196.239 277.851C195.995 277.766 195.73 277.724 195.463 277.728C195.196 277.731 194.933 277.781 194.694 277.872ZM192.942 280.27V283.728C193.041 284.212 192.911 284.707 192.576 285.126C192.178 285.464 190.984 285.753 190.427 285.427C190.902 285.75 191.51 285.937 192.146 285.958C195.442 285.982 192.799 281.523 192.942 280.27ZM187.418 279.703C186.782 279.703 186.686 281.089 187.339 281.089C187.991 281.089 188.167 279.703 187.418 279.703ZM195.728 279.98C195.028 279.98 195.155 281.342 195.728 281.342C196.301 281.342 196.317 279.98 195.728 279.98ZM186.24 285.042C185.715 286.874 188.612 288.85 190.921 287.874C189.858 287.805 188.847 287.499 188.014 286.995C187.181 286.491 186.564 285.811 186.24 285.042ZM66.8593 315C66.9339 315.135 67.0245 315.264 67.13 315.386C67.0672 315.247 66.9759 315.117 66.8593 315ZM132.05 425.013C130.761 424.278 129.089 424.688 127.64 424.832C73.6411 429.918 29.5757 431.448 27.3469 432.364C24.5132 433.497 25.4366 437.281 28.9389 437.064C61.383 435.027 93.843 433.039 126.208 430.014C127.986 429.974 129.75 429.768 131.461 429.4C132.012 429.226 132.491 428.943 132.846 428.58C133.202 428.217 133.422 427.789 133.482 427.339C133.542 426.89 133.441 426.436 133.189 426.027C132.937 425.617 132.543 425.267 132.05 425.013ZM268.99 448.235C268.051 445.331 264.214 445.825 261.269 445.97L250.715 446.524C247.897 446.681 244.172 446.524 243.232 449.079C242.946 449.862 243.073 449.91 243.646 456.225C243.837 458.261 243.312 462.045 245.589 463.54C247.578 464.853 251.192 464.178 253.548 464.058C269.309 463.214 265.552 463.443 266.141 463.383C267.257 463.306 268.291 462.906 269.026 462.266C269.762 461.626 270.143 460.796 270.089 459.949C270.089 458.008 269.723 456.056 269.547 454.116C269.57 452.148 269.383 450.181 268.99 448.235ZM1 347.972C19.4173 347.766 37.7812 346.415 55.9066 343.935C28.8274 346.212 17.9066 346.911 1 347.972ZM20.1353 336.451C32.9901 336.229 45.7974 335.189 58.4219 333.342C45.6544 334.234 32.8551 335.282 20.1353 336.451ZM201.332 332.727C219.862 331.522 238.361 329.787 256.796 327.907C276.886 325.894 273.766 326.135 253.039 327.798C235.782 329.208 218.509 330.751 201.332 332.727ZM233.712 320.026C248.454 319.17 263.291 317.784 277.873 315.892C268.545 316.422 249.17 318.025 233.712 320.026ZM23.4785 282.547C41.0423 282.034 58.5404 280.625 75.8539 278.329C70.489 278.667 23.6376 282.475 23.4785 282.547Z" fill="#FF0303" fill-opacity="0.81"/>
<path d="M277.619 408.262C275.788 392.837 274.786 387.547 270.105 359.504C269.926 357.452 269.391 355.426 268.513 353.479C267.695 351.872 266.246 350.494 264.362 349.529C262.478 348.564 260.249 348.058 257.975 348.08C254.536 347.972 212.238 350.418 204.803 350.828C204.039 350.635 203.386 349.623 202.845 349.044C196.477 342.742 182.404 335.21 173.33 332.173C174.444 330.968 174.11 329.317 174.492 327.919C175.416 324.605 180.096 322.424 183.853 316.073C186.225 312.072 185.445 312.566 186.496 312.385C193.831 312.681 201.183 312.645 208.512 312.277C237.964 310.385 259.805 297.008 264.581 287.801C265.792 287.948 267.022 287.98 268.243 287.898C269.228 287.847 270.153 287.52 270.837 286.982C272.159 285.922 272.843 284.09 270.678 283.367C271.57 283.234 273.528 282.921 273.114 281.897C272.525 280.487 267.558 281.005 265.552 281.463C262.368 282.162 262.034 282.788 261.111 282.861C260.187 282.933 261.54 282.62 257.927 283.041C253.39 283.572 248.216 284.066 243.456 284.656C222.633 287.247 221.742 290.682 217.093 290.453C209.414 289.79 201.663 289.766 193.978 290.38C198.451 286.62 198.897 277.39 198.945 277.269C199.152 276.691 199.136 276.895 200.011 276.835C204.31 276.498 208.162 274.317 207.541 271.123C207.299 269.961 206.623 268.875 205.594 267.994C204.565 267.112 203.224 266.471 201.731 266.146C204.405 265.206 203.418 262.531 201.54 261.458C200.697 260.922 199.685 260.56 198.602 260.408C197.52 260.256 196.404 260.319 195.363 260.591C195.809 259.277 194.296 258.421 192.847 258.072C191.972 257.861 191.046 257.795 190.133 257.881C189.221 257.966 188.344 258.2 187.562 258.566C188.677 255.336 178.17 254.854 178.392 258.867C172.868 256.879 169.016 263.145 170.289 263.013C167.886 263.242 165.275 265.893 167.328 267.484C166.534 267.73 165.813 268.093 165.206 268.552C164.599 269.012 164.119 269.558 163.794 270.159C163.65 270.442 163.584 270.745 163.6 271.049C163.616 271.352 163.715 271.65 163.889 271.923C164.064 272.197 164.311 272.44 164.615 272.638C164.919 272.836 165.274 272.985 165.657 273.075C163.938 273.895 163.794 276.51 166.182 276.823C165.852 277.048 165.594 277.327 165.428 277.639C165.261 277.951 165.191 278.288 165.221 278.623C165.252 278.959 165.383 279.285 165.605 279.576C165.826 279.868 166.133 280.117 166.501 280.306C166.851 280.499 167.615 280.631 167.583 281.065C167.583 281.21 166.899 281.74 166.803 281.933C166.596 282.344 166.596 282.799 166.803 283.21C167.217 283.969 167.965 283.969 168.809 284.259C169.016 284.343 169.891 284.716 169.876 285.319C169.765 286.083 169.316 286.797 168.602 287.344C167.997 287.621 167.933 287.344 167.376 287.09C160.122 283.191 151.953 280.373 143.306 278.787C130.021 276.238 116.09 276.332 102.868 279.063C89.6458 281.793 77.5813 287.066 67.8469 294.369C67.5922 294.562 66.6688 295.574 66.2549 295.574C65.8003 295.408 65.3638 295.215 64.9495 294.996C64.3213 294.778 63.6481 294.643 62.9596 294.598C63.2143 294.237 64.3127 293.393 64.0103 293.056C64.0103 292.983 51.1632 293.224 51.1154 293.248C50.399 293.477 50.2239 294.526 50.0169 295.068C47.9952 300.66 49.8896 303.769 50.0169 306.962C50.1379 309.862 50.958 312.721 52.4367 315.398C52.787 316.013 53.376 317.591 54.2675 317.881C58.6961 317.978 63.1248 317.687 67.4648 317.013C68.1493 316.832 68.0857 317.013 67.9742 316.591C67.7861 316.16 67.5124 315.754 67.1623 315.386C67.3852 315.832 67.624 316.495 67.7673 316.7C64.2289 317.08 60.6592 317.269 57.0852 317.266C56.4505 317.32 55.8097 317.32 55.1749 317.266C54.6495 317.386 54.3471 317.266 54.2516 316.844C52.0198 313.548 50.6573 309.954 50.2398 306.263C51.2229 308.892 52.878 311.348 55.1112 313.494C55.8117 314.145 57.1171 315.651 58.2951 315.904C59.0149 315.946 59.7385 315.884 60.4283 315.723C67.3534 315.012 66.7962 314.928 66.9713 315.049C67.6718 314.964 68.3881 314.928 69.0727 314.82C70.2348 314.615 69.8527 314.446 69.0727 313.711C66.9226 311.64 65.1453 309.363 63.7874 306.938C65.1405 306.938 66.6688 305.034 67.1942 304.709C67.7195 304.384 67.5762 304.528 68.3881 304.769C69.7216 305.064 71.1067 305.202 72.4954 305.179C77.6325 305.4 82.786 305.218 87.8737 304.637C103.793 302.901 107.805 297.9 114.507 300.31C110.623 303.118 106.213 306.492 104.366 310.409C103.507 312.217 104.366 312.578 104.366 313.361C104.366 313.868 104.366 313.771 103.698 314.145C76.73 329.546 89.0836 346.08 93.1749 357.962C5.61723 363.397 15.8535 361.83 11.7463 363.324C2.91089 366.542 5.95153 375.074 6.60423 380.919C17.4932 479.375 15.36 477.7 19.0533 481.712C22.2373 485.243 28.2071 485.219 33.2855 484.822C88.2876 480.592 263.451 473.144 273.974 471.566C279.975 470.686 282.745 467.167 282.984 462.768C283.318 456.478 278.367 414.649 277.619 408.262ZM269.118 287.368C267.367 286.295 267.749 285.741 270.567 286.44C270.215 286.85 269.711 287.173 269.118 287.368ZM270.949 285.982C270.673 285.881 270.385 285.8 270.089 285.741C270.32 285.519 270.513 285.276 270.662 285.018C270.746 284.839 270.766 284.648 270.721 284.462C270.677 284.276 270.569 284.102 270.408 283.957C271.57 284.403 271.602 284.885 271.108 285.741L270.949 285.982ZM267.574 281.643C268.418 281.583 271.793 281.306 272.238 282.077C272.557 282.632 270.646 282.8 270.01 282.921C268.832 283.162 267.956 282.776 266.746 282.921C267.641 283.007 268.485 283.282 269.182 283.716C270.312 284.512 270.392 284.921 268.243 284.704C267.924 284.704 267.574 285.198 267.351 285.355C267.133 285.539 266.869 285.688 266.573 285.794C266.278 285.899 265.958 285.959 265.632 285.97C265.985 286.055 266.36 286.07 266.723 286.013C267.086 285.956 267.423 285.829 267.701 285.644C266.491 286.271 268.163 287.151 268.863 287.416C268.043 287.64 267.156 287.69 266.3 287.56C265.757 287.551 265.219 287.474 264.708 287.331C264.549 287.235 263.26 284.331 261.445 283.222C263.321 282.418 265.377 281.883 267.51 281.643H267.574ZM64.7266 295.285C65.1193 295.464 65.4968 295.661 65.8569 295.876C65.113 296.463 64.5383 297.16 64.1695 297.924C63.8351 298.563 64.0421 298.611 63.262 298.744C62.7208 298.84 62.0522 298.744 61.495 298.852C61.5362 297.812 61.7941 296.783 62.2591 295.803C62.9596 294.405 62.5934 294.345 64.7266 295.285ZM64.3446 298.78H63.7874C63.9625 298.563 64.1376 298.358 64.3287 298.153C64.2979 298.362 64.3033 298.572 64.3446 298.78ZM63.7715 307.36C65.0886 309.86 66.8682 312.205 69.0568 314.326L60.5716 315.085C59.9529 315.207 59.3167 315.272 58.6772 315.278C57.8494 315.157 57.0852 314.301 56.4962 313.807C53.8449 311.453 51.9159 308.684 50.8478 305.698C49.7798 302.712 49.5993 299.583 50.3194 296.538C50.4468 296.02 50.7015 294.128 51.3064 293.755C51.4975 293.658 50.8288 293.851 63.6441 293.321C62.3167 294.742 61.5143 296.406 61.3198 298.141C61.3198 298.852 61.2084 298.708 60.3488 298.876C59.8794 298.952 59.4318 299.09 59.0274 299.286C58.1678 299.78 58.2155 300.407 59.3458 300.684C58.6781 300.754 58.0407 300.939 57.4832 301.226C57.2922 301.347 57.0534 301.708 56.8464 301.768C56.4548 301.799 56.06 301.799 55.6684 301.768C54.962 301.814 54.2848 302.002 53.7077 302.314C53.1307 302.625 52.6751 303.049 52.389 303.54C50.797 306.721 58.6613 308.493 60.6035 305.685C60.8263 305.372 60.7945 304.902 61.097 304.745C61.3294 304.721 61.565 304.721 61.7974 304.745C63.2302 304.661 62.3387 305.203 62.5775 305.95C62.8163 306.697 63.262 306.396 63.7715 307.36ZM57.8494 304.335C58.0245 304.841 60.7627 305.215 60.8741 304.89C59.9985 307.794 52.9143 307.023 53.1053 304.227C53.2009 302.769 55.1749 302.178 56.7987 301.949C56.2733 302.022 56.9897 302.829 57.1012 302.877C57.7309 303.064 58.4245 303.09 59.0752 302.949C58.4862 303.178 57.6265 303.769 57.8494 304.335ZM62.6253 304.781C62.7942 304.763 62.9657 304.763 63.1347 304.781C62.9897 304.896 62.8761 305.031 62.8004 305.179C62.7367 305.022 62.673 304.902 62.6253 304.781ZM66.2868 305.143C65.5704 305.673 63.9625 307.155 63.278 306.107C62.7049 305.251 63.8511 305.275 64.058 304.612C64.265 303.95 63.8351 304.251 63.278 304.263L61.2721 304.335C60.6671 304.335 58.709 304.685 58.6454 303.998C58.5817 303.311 60.9219 302.998 61.4631 302.793C62.3865 302.455 62.1954 302.202 61.3198 302.13C59.7279 302.009 57.5787 302.841 57.5628 302.13C57.5469 301.419 60.0144 301.311 60.508 301.238C61.0015 301.166 62.0999 301.094 61.4313 300.563C61.0174 300.238 58.4862 300.708 59.314 299.756C59.6961 299.334 63.7237 298.695 64.3923 299.081C64.5744 299.586 64.697 300.102 64.7585 300.624C65.1599 301.981 66.0402 303.23 67.3056 304.239C66.9872 304.576 66.637 304.866 66.2868 305.143ZM112.454 299.25C109.342 299.069 106.229 299.589 103.507 300.744C97.3459 303.01 84.1008 305.022 73.2595 304.359C69.3433 304.106 68.3085 304.01 66.5256 301.491C65.76 300.566 65.352 299.498 65.3475 298.406C65.6551 297.352 66.4514 296.416 67.5922 295.767C94.6555 274.799 137.638 272.376 166.007 286.717C166.237 286.82 166.455 286.937 166.66 287.066C166.771 287.621 166.946 288.476 166.994 288.886C167.408 292.574 170.48 297.575 175.097 298.695C177.963 299.407 182.261 298.021 181.465 295.285C181.672 298.418 175.384 299.708 171.674 295.996C169.171 293.402 167.533 290.388 166.899 287.211C167.551 287.56 167.758 287.97 168.49 287.645C169.525 287.199 169.732 285.488 170.003 285.235C170.512 284.753 171.929 285.693 173.187 284.813C173.454 284.585 173.655 284.317 173.776 284.026C173.897 283.735 173.935 283.428 173.887 283.126C173.772 282.777 173.687 282.423 173.633 282.065C173.633 281.8 173.903 281.607 173.951 281.366C174.078 280.619 173.394 280.438 172.805 279.908C172.27 279.417 171.938 278.818 171.85 278.185C171.722 277.305 172.009 275.63 173.633 275.775C175.256 275.919 175.224 277.57 176.052 278.366C176.3 278.562 176.62 278.697 176.97 278.754C177.321 278.81 177.686 278.786 178.017 278.683C178.349 278.58 178.632 278.404 178.83 278.178C179.027 277.951 179.13 277.685 179.125 277.414C179.125 275.859 178.345 274.22 178.217 272.593C181.688 272.786 182.309 271.629 183.343 271.81C184.044 271.93 184.044 272.461 186.973 274.076C190.335 275.82 194.282 276.807 198.356 276.92C198.128 278.749 197.739 280.564 197.194 282.354C196.445 284.957 195.331 288.067 192.688 289.971C190.444 291.61 186.862 291.634 184.028 290.983C183.348 290.806 182.683 290.597 182.038 290.356C181.226 290.091 181.194 290.031 180.892 290.718C180.427 291.45 180.208 292.257 180.252 293.068C180.297 293.879 180.604 294.669 181.147 295.369C179.316 292.839 182.627 291.513 185.556 292.007C186.834 292.336 188.199 292.422 189.532 292.258C190.864 292.094 192.123 291.685 193.198 291.067C194.588 290.719 196.049 290.564 197.512 290.609C202.406 290.362 207.317 290.387 212.206 290.682C215.167 290.899 217.602 291.598 220.468 290.609C230.8 286.994 233.681 286.596 257.561 283.752C258.42 283.644 260.044 283.186 260.872 283.56C261.302 283.74 263.674 286.476 263.562 287.5C263.279 288.452 262.694 289.336 261.859 290.079C253.819 298.997 241.593 304.54 228.141 308.457C214.689 312.373 200.123 312.928 186.082 312.072C186.94 310.636 187.566 309.127 187.944 307.577C186.989 310.12 182.086 318.555 179.73 320.327C179.093 320.809 179.411 320.616 178.536 320.471C175.352 319.905 175.209 323.677 170.433 319.507C165.943 315.591 161.995 318.833 159.432 317.76C157.633 317.013 157.49 314.856 156.408 313.651C155.652 312.86 154.659 312.217 153.51 311.775C152.361 311.333 151.09 311.104 149.801 311.108C147.365 310.999 144.372 311.457 142.542 309.903C140.711 308.348 140.313 306.022 138.036 304.637C135.219 302.913 132.242 304.275 131.541 301.021C131.477 301.07 128.198 300.359 112.374 299.25H112.454ZM180.908 292.224C181.115 291.742 181.338 291.26 181.56 290.778C184.076 292.043 184.458 291.103 180.844 292.188L180.908 292.224ZM106.977 308.71C109.425 305.671 112.36 302.874 115.717 300.383C116.067 300.178 126.956 300.961 127.036 300.997C127.498 301.166 127.402 301.323 127.513 301.768C127.682 302.677 128.132 303.542 128.826 304.294C129.521 305.046 130.44 305.663 131.509 306.095C134.693 307.3 134.693 305.528 137.527 309.879C142.175 316.88 148.973 312.446 152.507 315.157C155.245 317.254 154.227 321.713 162.202 320.929C163.794 320.785 165.482 320.339 166.771 321.17C168.554 322.376 169.7 325.473 175.575 324.328C172.614 327.533 173.378 328.329 172.391 330.944C171.038 334.764 164.813 338.066 159.751 339.379C156.354 340.145 152.758 340.253 149.291 339.693C122.133 336.258 105.831 314.386 105.353 312.193C105.369 310.927 105.94 309.702 106.977 308.71ZM146.171 354.624C137.957 355.166 139.087 355.262 138.625 354.708C138.164 354.154 138.116 353.623 137.177 352.189C142.749 352.443 143.736 353.78 146.219 354.624H146.171ZM7.52757 379.352C7.00222 373.99 5.02819 366.325 13.4497 364.06C16.2356 363.288 92.7769 359.095 92.9361 359.107C93.7321 359.179 93.5889 359.191 93.8117 359.95C99.1448 377.834 88.3036 395.838 70.203 407.792C71.4447 408.792 72.7183 409.769 74.0237 410.733L72.8615 411.432C71.2696 410.227 69.6776 409.021 68.0857 407.708C74.382 403.644 79.8109 398.867 84.1804 393.548C59.2715 395.155 34.3308 396.673 9.35832 398.103L7.52757 379.352ZM79.5955 414.782C77.8125 417.192 86.5365 424.591 81.9516 424.627C80.105 424.627 77.8444 422.494 76.6823 421.603C74.5842 420.019 72.6321 418.327 70.8398 416.541C70.0597 415.746 69.4707 415.119 70.2507 414.191C71.3892 413.227 72.6414 412.344 73.9918 411.552C74.6764 411.046 74.6764 411.251 75.3768 411.757C80.9965 415.854 79.3886 414.637 79.5955 414.782ZM267.351 470.867C187.323 473.928 113.52 477.675 34.3839 483.4C25.3575 484.05 19.0374 483.556 18.2096 476.687C17.0634 467.263 17.8116 472.59 12.0169 422.35C29.7195 421.024 49.4279 419.602 66.43 418.421C67.8284 418.179 69.263 418.078 70.6965 418.12C71.6039 418.277 72.6387 419.638 73.3391 420.205C75.1804 421.826 77.2518 423.289 79.5159 424.567C81.49 425.579 84.642 425.857 84.1167 423.362C83.4958 420.41 78.9587 416.915 80.0731 415.155C85.2788 418.879 86.3295 417.397 92.0765 415.155C110.75 407.898 125.585 396.026 134.12 381.509C138.594 373.773 142.239 364.469 139.214 356.046C167.742 354.298 189.95 352.43 207.302 350.972L248.693 348.671C261.509 349.08 266.778 352.033 269.548 359.601C273.608 382.69 273.066 379.364 273.353 381.811C270.901 381.69 129.567 390.608 129.44 390.668C120.17 401.884 106.934 410.91 91.2327 416.722C117.659 414.938 275.613 404.804 275.773 404.828C276.6 404.984 276.091 404.442 276.473 405.274C276.473 405.394 280.007 431.689 281.376 461.19C281.711 469.216 276.903 470.541 267.351 470.867Z" fill="#246BFE"/>
</g>
<ellipse cx="36" cy="28.5" rx="30" ry="28.5" fill="#27AAD8"/>
<path d="M93.1969 7.23252C118.378 -6.15266 121.479 18.0232 121.479 18.0232C81.26 18.6074 80.9785 11.7662 93.1969 7.23252Z" fill="#F69A28"/>
<path d="M40.5705 20.4913V23.7793H36.1065V37.3393H32.0025V23.7793H27.5385V20.4913H40.5705ZM46.3262 37.5313C45.0142 37.5313 43.8302 37.2513 42.7742 36.6913C41.7342 36.1313 40.9102 35.3313 40.3022 34.2913C39.7102 33.2513 39.4142 32.0353 39.4142 30.6433C39.4142 29.2673 39.7182 28.0593 40.3262 27.0193C40.9342 25.9633 41.7662 25.1553 42.8222 24.5953C43.8782 24.0353 45.0622 23.7553 46.3742 23.7553C47.6862 23.7553 48.8702 24.0353 49.9262 24.5953C50.9822 25.1553 51.8142 25.9633 52.4222 27.0193C53.0302 28.0593 53.3342 29.2673 53.3342 30.6433C53.3342 32.0193 53.0222 33.2353 52.3982 34.2913C51.7902 35.3313 50.9502 36.1313 49.8782 36.6913C48.8222 37.2513 47.6382 37.5313 46.3262 37.5313ZM46.3262 33.9793C47.1102 33.9793 47.7742 33.6913 48.3182 33.1153C48.8782 32.5393 49.1582 31.7153 49.1582 30.6433C49.1582 29.5713 48.8862 28.7473 48.3422 28.1713C47.8142 27.5953 47.1582 27.3073 46.3742 27.3073C45.5742 27.3073 44.9102 27.5953 44.3822 28.1713C43.8542 28.7313 43.5902 29.5553 43.5902 30.6433C43.5902 31.7153 43.8462 32.5393 44.3582 33.1153C44.8862 33.6913 45.5422 33.9793 46.3262 33.9793ZM57.2154 25.8433C57.6154 25.2193 58.1674 24.7153 58.8714 24.3313C59.5754 23.9473 60.3994 23.7553 61.3434 23.7553C62.4474 23.7553 63.4474 24.0353 64.3434 24.5953C65.2394 25.1553 65.9434 25.9553 66.4554 26.9953C66.9834 28.0353 67.2474 29.2433 67.2474 30.6193C67.2474 31.9953 66.9834 33.2113 66.4554 34.2673C65.9434 35.3073 65.2394 36.1153 64.3434 36.6913C63.4474 37.2513 62.4474 37.5313 61.3434 37.5313C60.4154 37.5313 59.5914 37.3393 58.8714 36.9553C58.1674 36.5713 57.6154 36.0753 57.2154 35.4673V43.7233H53.1114V23.9473H57.2154V25.8433ZM63.0714 30.6193C63.0714 29.5953 62.7834 28.7953 62.2074 28.2193C61.6474 27.6273 60.9514 27.3313 60.1194 27.3313C59.3034 27.3313 58.6074 27.6273 58.0314 28.2193C57.4714 28.8113 57.1914 29.6193 57.1914 30.6433C57.1914 31.6673 57.4714 32.4753 58.0314 33.0673C58.6074 33.6593 59.3034 33.9553 60.1194 33.9553C60.9354 33.9553 61.6314 33.6593 62.2074 33.0673C62.7834 32.4593 63.0714 31.6433 63.0714 30.6193Z" fill="#F8F8FD"/>
<path d="M66.6885 34.2193V30.9073L74.2725 20.0593H78.8565V30.6673H80.8245V34.2193H78.8565V37.3393H74.7525V34.2193H66.6885ZM75.0405 24.5713L71.0085 30.6673H75.0405V24.5713ZM91.4027 20.4913V31.9633C91.4027 33.7393 90.8987 35.1073 89.8907 36.0673C88.8987 37.0273 87.5547 37.5073 85.8587 37.5073C84.0827 37.5073 82.6587 37.0033 81.5867 35.9953C80.5147 34.9873 79.9787 33.5553 79.9787 31.6993H84.0587C84.0587 32.4033 84.2027 32.9393 84.4907 33.3073C84.7787 33.6593 85.1947 33.8353 85.7387 33.8353C86.2347 33.8353 86.6187 33.6753 86.8907 33.3553C87.1627 33.0353 87.2987 32.5713 87.2987 31.9633V20.4913H91.4027ZM98.4137 37.5313C97.1017 37.5313 95.9177 37.2513 94.8617 36.6913C93.8217 36.1313 92.9977 35.3313 92.3897 34.2913C91.7977 33.2513 91.5017 32.0353 91.5017 30.6433C91.5017 29.2673 91.8057 28.0593 92.4137 27.0193C93.0217 25.9633 93.8537 25.1553 94.9097 24.5953C95.9657 24.0353 97.1497 23.7553 98.4617 23.7553C99.7737 23.7553 100.958 24.0353 102.014 24.5953C103.07 25.1553 103.902 25.9633 104.51 27.0193C105.118 28.0593 105.422 29.2673 105.422 30.6433C105.422 32.0193 105.11 33.2353 104.486 34.2913C103.878 35.3313 103.038 36.1313 101.966 36.6913C100.91 37.2513 99.7257 37.5313 98.4137 37.5313ZM98.4137 33.9793C99.1977 33.9793 99.8617 33.6913 100.406 33.1153C100.966 32.5393 101.246 31.7153 101.246 30.6433C101.246 29.5713 100.974 28.7473 100.43 28.1713C99.9017 27.5953 99.2457 27.3073 98.4617 27.3073C97.6617 27.3073 96.9977 27.5953 96.4697 28.1713C95.9417 28.7313 95.6777 29.5553 95.6777 30.6433C95.6777 31.7153 95.9337 32.5393 96.4457 33.1153C96.9737 33.6913 97.6297 33.9793 98.4137 33.9793ZM109.303 25.8433C109.687 25.2193 110.239 24.7153 110.959 24.3313C111.679 23.9473 112.503 23.7553 113.431 23.7553C114.535 23.7553 115.535 24.0353 116.431 24.5953C117.327 25.1553 118.031 25.9553 118.543 26.9953C119.071 28.0353 119.335 29.2433 119.335 30.6193C119.335 31.9953 119.071 33.2113 118.543 34.2673C118.031 35.3073 117.327 36.1153 116.431 36.6913C115.535 37.2513 114.535 37.5313 113.431 37.5313C112.487 37.5313 111.663 37.3473 110.959 36.9793C110.255 36.5953 109.703 36.0913 109.303 35.4673V37.3393H105.199V19.5793H109.303V25.8433ZM115.159 30.6193C115.159 29.5953 114.871 28.7953 114.295 28.2193C113.735 27.6273 113.039 27.3313 112.207 27.3313C111.391 27.3313 110.695 27.6273 110.119 28.2193C109.559 28.8113 109.279 29.6193 109.279 30.6433C109.279 31.6673 109.559 32.4753 110.119 33.0673C110.695 33.6593 111.391 33.9553 112.207 33.9553C113.023 33.9553 113.719 33.6593 114.295 33.0673C114.871 32.4593 115.159 31.6433 115.159 30.6193Z" fill="#26A4FF"/>
<defs>
<clipPath id="clip0_0_1">
<rect width="282" height="229" fill="white" transform="translate(0.917969 247.837)"/>
</clipPath>
</defs>
</svg>
